<svg xmlns="http://www.w3.org/2000/svg" width="38" height="36.836" viewBox="0 0 38 36.836">
    <path data-name="Контур 470" d="M16.27 39.456v.682l-.259.73a24.6 24.6 0 0 1-2.829 5.573 24.909 24.909 0 0 1-4.15 4.687L7.825 46.9 3 45.7l1.623-1.031a19.748 19.748 0 0 0 7.395-8.547l.838.326 1.3 3.336zm8.444 0 2.111.326 1.3-3.336.838-.326a19.748 19.748 0 0 0 7.395 8.547l1.626 1.033-4.825 1.2-1.206 4.222A24.908 24.908 0 0 1 27.8 46.44a24.6 24.6 0 0 1-2.829-5.573l-.259-.73z" transform="translate(-1.492 -15.371)" style="fill:#79a7c6"/>
    <path data-name="Контур 471" d="m27.413 47.438.054.06L25 49.615V33.933l.072-.1a7.086 7.086 0 0 0 2.34 1.08v12.525zm6.032-8.209v10.386L30.977 47.5l.054-.06V34.91a7.086 7.086 0 0 0 2.34-1.08l.072.1v5.3z" transform="translate(-10.222 -14.462)" style="fill:#fcd770"/>
    <g data-name="Сгруппировaть 171">
        <path data-name="Контур 472" d="M29 35.62a7.257 7.257 0 0 0 3.619 0v3.848L29 37.056V35.62zm3.619 9.88v2.648l-.054.06-1.755-1.5-1.755 1.5-.055-.06v-5.061z" transform="translate(-11.81 -15.172)" style="fill:#ffeaa7"/>
        <path data-name="Контур 473" d="M32.619 45.413v3.016L29 46.016V43z" transform="translate(-11.81 -18.101)" style="fill:#ffeaa7"/>
        <path data-name="Контур 474" d="M32.619 40.413v3.016L29 41.016V38z" transform="translate(-11.81 -16.116)" style="fill:#ffeaa7"/>
    </g>
    <path data-name="Контур 475" d="m32.955 5.238-.742 3.257-.06.211a7.268 7.268 0 0 0-3.8-.048v-.229l-.983-3.191L30.163 3z" transform="translate(-11.163 -2.228)" style="fill:#3dc439"/>
    <path data-name="Контур 476" d="M36.333 16.782 34.1 13.989l.543-3.541L31.3 9.146 30 5.81l-3.541.543-.742 3.257-.06.211a7.247 7.247 0 0 1 3.215 1.924 7.162 7.162 0 0 1 1.816 3.281 7 7 0 0 1 .217 1.755 7.181 7.181 0 0 1-.277 1.99 7.26 7.26 0 0 1-2.093 3.372 5.931 5.931 0 0 1-.718.567l.072.1v4.614l2.111.329 1.3-3.336.838-.326 2.5-.977-.538-3.54zm-19-10.972-1.3 3.336-3.336 1.3.543 3.541L11 16.782l2.238 2.793-.543 3.541 2.5.977.838.326 1.3 3.336 2.111-.326v-4.616l.072-.1a7.07 7.07 0 0 1-1.056-.893 7.162 7.162 0 0 1-1.816-3.281 7 7 0 0 1-.217-1.755 7.224 7.224 0 0 1 5.429-7.009v-.231l-.983-3.191z" transform="translate(-4.667 -3.343)" style="fill:#3dc439"/>
    <path data-name="Контур 477" d="M34.259 17.483a7 7 0 0 1 .217 1.755 7.181 7.181 0 0 1-.277 1.99 7.26 7.26 0 0 1-2.093 3.372 5.931 5.931 0 0 1-.718.567 7.277 7.277 0 0 1-9.355-.893 7.162 7.162 0 0 1-1.816-3.281A7 7 0 0 1 20 19.238a7.236 7.236 0 0 1 14.259-1.755zm-4.005 5.977v-2.412h-1.81v-6.032h-3.619v2.413h1.206v3.619h-1.81v2.412z" transform="translate(-8.238 -5.799)" style="fill:#f5f7fa"/>
    <path data-name="Контур 478" d="M33.032 23.032v2.413H27v-2.413h1.81v-3.619H27.6V17h3.619v6.032z" transform="translate(-11.016 -7.783)" style="fill:#fcd770"/>
    <path data-name="Контур 479" d="M31.429 16H26.6v3.619h1.21v2.413H26v3.619h7.238v-3.619h-1.81zm.6 7.238v1.206h-4.823v-1.206h1.81v-4.825H27.81v-1.207h2.413v6.032z" transform="translate(-10.619 -7.387)" style="fill:#262536"/>
    <path data-name="Контур 480" d="M35.693 30.506a19.024 19.024 0 0 1-6.886-7.717l2.331-.911-.572-3.755 2.372-2.965-2.372-2.965.572-3.755L27.6 7.057 26.219 3.52l-3.755.572L19.5 1.72l-2.965 2.372-3.755-.572-1.38 3.537-3.539 1.382.572 3.755-2.372 2.965 2.372 2.965-.572 3.755 2.331.911a19.024 19.024 0 0 1-6.886 7.717L.5 32.292l5.849 1.463 1.372 4.8.716-.626a25.282 25.282 0 0 0 6.238-8.329v8.581l4.825-4.132 4.825 4.135V29.6a25.275 25.275 0 0 0 6.238 8.327l.716.626 1.372-4.8 5.849-1.461zM27.268 22.1l-1.9-1.758a7.826 7.826 0 0 0 1.475-2.468l2.548.581.4 2.655zm-6.562 5.81-2.412-1.61v-1.569l2.413 1.609zm-2.413-.159 2.413 1.609v1.56l-2.413-1.609zm2.413-2.857-2.412-1.614v-.38a7.147 7.147 0 0 0 2.413 0zm-1.206-3.1a6.635 6.635 0 1 1 6.635-6.635 6.643 6.643 0 0 1-6.635 6.635zm-4.825 3.495-1.121.171-.99-2.532 1.758-1.9c.115.1.232.2.353.295zm9.651-3.962c.062-.048.125-.093.186-.144l1.913 1.775-.978 2.5-1.121-.17zm7.069-6.167-1.7 2.123-2.51-.572a7.593 7.593 0 0 0 .034-2.878l2.5-.77zM29.8 9.212l-.41 2.687-2.465.761a7.832 7.832 0 0 0-1.4-2.513L27.3 8.234zm-7.009-3.95 2.655-.4.99 2.532-1.758 1.9a7.826 7.826 0 0 0-2.468-1.475zm-3.292-2 2.123 1.7-.572 2.51a7.593 7.593 0 0 0-2.878-.034l-.77-2.5zm-5.946 1.596 2.687.41.76 2.465a7.832 7.832 0 0 0-2.513 1.4L12.576 7.36zm-1.821 3.364 1.9 1.758a7.826 7.826 0 0 0-1.475 2.468L9.6 11.867l-.4-2.655zm-4.127 6.937 1.7-2.123 2.51.572a7.593 7.593 0 0 0-.034 2.878l-2.5.77zm2 3.26 2.465-.761a7.832 7.832 0 0 0 1.4 2.513l-1.77 1.912-2.5-.978zM8.353 36.375l-1.035-3.622-3.8-.95.439-.279a20.231 20.231 0 0 0 7.363-8.294l.079.031 1.382 3.539 1.846-.282-.177.5a24.085 24.085 0 0 1-6.1 9.364zm7.528-14.267a7.765 7.765 0 0 0 1.206.508v11.912l-1.206 1.034zm2.413 11.386v-2.732l2.413 1.609v1.123L19.5 32.459zm3.619 1.034V22.616a7.765 7.765 0 0 0 1.206-.508v13.454zm9.77-1.775-1.035 3.622a24.073 24.073 0 0 1-6.1-9.363l-.177-.5 1.846.282 1.383-3.533.079-.031a20.23 20.23 0 0 0 7.365 8.294l.439.279z" style="fill:#262536" transform="translate(-.5 -1.72)"/>
</svg>
