<svg xmlns="http://www.w3.org/2000/svg" width="120" height="120" viewBox="0 0 120 120">
  <g id="building" transform="translate(36 36)">
    <circle id="Ellipse_21" data-name="Ellipse 21" cx="40" cy="40" r="40" transform="translate(-16 -16)" fill="#79a7c6" opacity="0.5"/>
    <g id="Ellipse_22" data-name="Ellipse 22" transform="translate(-36 -36)" fill="none" stroke="#fff" stroke-width="18" opacity="0.1">
      <circle cx="60" cy="60" r="60" stroke="none"/>
      <circle cx="60" cy="60" r="51" fill="none"/>
    </g>
    <g id="Group_98" data-name="Group 98">
      <g id="Group_97" data-name="Group 97">
        <path id="Path_304" data-name="Path 304" d="M142.667,477.867h-22.4a.8.8,0,0,0-.8.8v1.6a.8.8,0,0,0,1.6,0v-.8h21.6a.8.8,0,0,0,0-1.6Z" transform="translate(-108.267 -433.067)" fill="#262536"/>
        <path id="Path_305" data-name="Path 305" d="M187.733,159.2a.8.8,0,0,0,.8.8h3.2a.8.8,0,0,0,.8-.8v-4.8a.8.8,0,0,0-.8-.8h-3.2a.8.8,0,0,0-.8.8v4.8Zm1.6-4h1.6v3.2h-1.6Z" transform="translate(-170.133 -139.2)" fill="#262536"/>
        <path id="Path_306" data-name="Path 306" d="M10.4,102.4H.8a.8.8,0,0,0-.8.8v16a.8.8,0,0,0,1.6,0V104h8.8a.8.8,0,0,0,0-1.6Z" transform="translate(0 -92.8)" fill="#262536"/>
        <path id="Path_307" data-name="Path 307" d="M409.6,364a.8.8,0,0,0,.8.8h3.2a.8.8,0,0,0,.8-.8v-4.8a.8.8,0,0,0-.8-.8h-3.2a.8.8,0,0,0-.8.8Zm1.6-4h1.6v3.2h-1.6Z" transform="translate(-371.2 -324.8)" fill="#262536"/>
        <path id="Path_308" data-name="Path 308" d="M4,307.2c-3.954,0-4,10.3-4,10.4a4.007,4.007,0,0,0,3.2,3.919V325.6a.8.8,0,1,0,1.6,0v-4.081A4.007,4.007,0,0,0,8,317.6C8,317.5,7.954,307.2,4,307.2ZM4,320a2.4,2.4,0,0,1-2.4-2.4c0-3.986,1.07-8.8,2.4-8.8s2.4,4.814,2.4,8.8A2.4,2.4,0,0,1,4,320Z" transform="translate(0 -278.4)" fill="#262536"/>
        <path id="Path_309" data-name="Path 309" d="M55.2,256H52a.8.8,0,0,0-.8.8v1.6a.8.8,0,1,0,1.6,0v-.8h1.6v4a.8.8,0,0,0,1.6,0v-4.8A.8.8,0,0,0,55.2,256Z" transform="translate(-46.4 -232)" fill="#262536"/>
        <path id="Path_310" data-name="Path 310" d="M410.4,160h3.2a.8.8,0,0,0,.8-.8v-4.8a.8.8,0,0,0-.8-.8h-3.2a.8.8,0,0,0-.8.8v4.8A.8.8,0,0,0,410.4,160Zm.8-4.8h1.6v3.2h-1.6Z" transform="translate(-371.2 -139.201)" fill="#262536"/>
        <path id="Path_311" data-name="Path 311" d="M55.2,153.6H52a.8.8,0,0,0-.8.8v4.8a.8.8,0,0,0,.8.8h3.2a.8.8,0,0,0,.8-.8v-4.8A.8.8,0,0,0,55.2,153.6Zm-.8,4.8H52.8v-3.2h1.6v3.2Z" transform="translate(-46.4 -139.2)" fill="#262536"/>
        <path id="Path_312" data-name="Path 312" d="M273.067,159.2a.8.8,0,0,0,.8.8h3.2a.8.8,0,0,0,.8-.8v-4.8a.8.8,0,0,0-.8-.8h-3.2a.8.8,0,0,0-.8.8Zm1.6-4h1.6v3.2h-1.6Z" transform="translate(-247.467 -139.2)" fill="#262536"/>
        <path id="Path_313" data-name="Path 313" d="M402.934,102.4h-9.6a.8.8,0,1,0,0,1.6h8.8v32.147a2.286,2.286,0,0,0-1.211-.111,3.195,3.195,0,0,0-5.578,0,2.351,2.351,0,0,0-.411-.036,2.4,2.4,0,0,0,0,4.8h6.4a2.4,2.4,0,0,0,2.4-2.4V103.2A.8.8,0,0,0,402.934,102.4Zm-1.6,36.8h-6.4a.8.8,0,0,1,0-1.6.791.791,0,0,1,.434.13.8.8,0,0,0,1.213-.492,1.594,1.594,0,0,1,3.107,0,.8.8,0,0,0,1.213.492.816.816,0,0,1,1.234.67A.8.8,0,0,1,401.334,139.2Z" transform="translate(-355.734 -92.8)" fill="#262536"/>
        <path id="Path_314" data-name="Path 314" d="M273.867,57.6h3.2a.8.8,0,0,0,.8-.8V52a.8.8,0,0,0-.8-.8h-3.2a.8.8,0,0,0-.8.8v4.8A.8.8,0,0,0,273.867,57.6Zm.8-4.8h1.6V56h-1.6Z" transform="translate(-247.467 -46.401)" fill="#262536"/>
        <path id="Path_315" data-name="Path 315" d="M273.067,261.6a.8.8,0,0,0,.8.8h3.2a.8.8,0,0,0,.8-.8v-4.8a.8.8,0,0,0-.8-.8h-3.2a.8.8,0,0,0-.8.8Zm1.6-4h1.6v3.2h-1.6Z" transform="translate(-247.467 -232)" fill="#262536"/>
        <path id="Path_316" data-name="Path 316" d="M188.534,57.6h3.2a.8.8,0,0,0,.8-.8V52a.8.8,0,0,0-.8-.8h-3.2a.8.8,0,0,0-.8.8v4.8A.8.8,0,0,0,188.534,57.6Zm.8-4.8h1.6V56h-1.6Z" transform="translate(-170.134 -46.401)" fill="#262536"/>
        <path id="Path_317" data-name="Path 317" d="M247.7,409.929a.8.8,0,1,0,1.136,0A.841.841,0,0,0,247.7,409.929Z" transform="translate(-224.266 -371.297)" fill="#262536"/>
        <path id="Path_318" data-name="Path 318" d="M187.733,261.6a.8.8,0,0,0,.8.8h3.2a.8.8,0,0,0,.8-.8v-4.8a.8.8,0,0,0-.8-.8h-3.2a.8.8,0,0,0-.8.8v4.8Zm1.6-4h1.6v3.2h-1.6Z" transform="translate(-170.133 -232)" fill="#262536"/>
        <path id="Path_319" data-name="Path 319" d="M170.667,359.2a.8.8,0,0,0,.8.8h2.4v7.2a.8.8,0,1,0,1.6,0V360h6.4v7.2a.8.8,0,1,0,1.6,0V360h2.4a.8.8,0,1,0,0-1.6h-14.4A.8.8,0,0,0,170.667,359.2Z" transform="translate(-154.667 -324.8)" fill="#262536"/>
        <path id="Path_320" data-name="Path 320" d="M409.6,261.6a.8.8,0,0,0,.8.8h3.2a.8.8,0,0,0,.8-.8v-4.8a.8.8,0,0,0-.8-.8h-3.2a.8.8,0,0,0-.8.8Zm1.6-4h1.6v3.2h-1.6Z" transform="translate(-371.2 -232)" fill="#262536"/>
        <path id="Path_321" data-name="Path 321" d="M158.134,0h-20.8a.8.8,0,0,0-.8.8V42.4a.8.8,0,1,0,1.6,0V1.6h19.2V42.4a.8.8,0,1,0,1.6,0V.8A.8.8,0,0,0,158.134,0Z" transform="translate(-123.734)" fill="#262536"/>
      </g>
    </g>
  </g>
</svg>
