<svg xmlns="http://www.w3.org/2000/svg" width="472.378" height="461.803" viewBox="0 0 472.378 461.803"><defs><style>.a,.b{opacity:0.2;}.b{fill:#fff;}</style></defs><g class="a" transform="matrix(0.966, 0.259, -0.259, 0.966, 98.843, -7.727)"><g class="a" transform="translate(0 8)"><g class="a"><path class="b" d="M373.9,90.258h-7.478V30.434A22.434,22.434,0,0,0,343.988,8H44.868A22.434,22.434,0,0,0,22.434,30.434V90.258H14.956A14.955,14.955,0,0,0,0,105.214v59.824a14.955,14.955,0,0,0,14.956,14.956h7.478V359.466A22.434,22.434,0,0,0,44.868,381.9h299.12a22.434,22.434,0,0,0,22.434-22.434V179.994H373.9a14.955,14.955,0,0,0,14.956-14.956V105.214A14.955,14.955,0,0,0,373.9,90.258ZM22.434,165.038H14.956V105.214h7.478ZM351.466,359.466a7.478,7.478,0,0,1-7.478,7.478H44.868a7.478,7.478,0,0,1-7.478-7.478V142.6H351.466Zm0-231.818H37.39V30.434a7.478,7.478,0,0,1,7.478-7.478h299.12a7.478,7.478,0,0,1,7.478,7.478Zm22.434,37.39h-7.478V105.214H373.9Z" transform="translate(0 -8)"/></g></g><g class="a" transform="translate(67.302 202.428)"><g class="a" transform="translate(0 0)"><path class="b" d="M131.824,216H86.956A14.955,14.955,0,0,0,72,230.956v29.912a14.955,14.955,0,0,0,14.956,14.956h44.868a14.955,14.955,0,0,0,14.956-14.956V230.956A14.955,14.955,0,0,0,131.824,216Zm0,44.868H86.956V230.956h44.868Z" transform="translate(-72 -216)"/></g></g><g class="a" transform="translate(157.038 202.428)"><g class="a" transform="translate(0 0)"><path class="b" d="M227.824,216H182.956A14.955,14.955,0,0,0,168,230.956v29.912a14.955,14.955,0,0,0,14.956,14.956h44.868a14.955,14.955,0,0,0,14.956-14.956V230.956A14.955,14.955,0,0,0,227.824,216Zm0,44.868H182.956V230.956h44.868Z" transform="translate(-168 -216)"/></g></g><g class="a" transform="translate(157.038 277.208)"><g class="a"><path class="b" d="M227.824,296H182.956A14.955,14.955,0,0,0,168,310.956v29.912a14.955,14.955,0,0,0,14.956,14.956h44.868a14.955,14.955,0,0,0,14.956-14.956V310.956A14.955,14.955,0,0,0,227.824,296Zm0,44.868H182.956V310.956h44.868Z" transform="translate(-168 -296)"/></g></g><g class="a" transform="translate(246.774 202.428)"><g class="a" transform="translate(0 0)"><path class="b" d="M323.824,216H278.956A14.955,14.955,0,0,0,264,230.956V335.648A14.955,14.955,0,0,0,278.956,350.6h44.868a14.955,14.955,0,0,0,14.956-14.956V230.956A14.955,14.955,0,0,0,323.824,216Zm0,119.648H278.956V230.956h44.868Z" transform="translate(-264 -216)"/></g></g><g class="a" transform="translate(67.302 277.208)"><g class="a"><path class="b" d="M131.824,296H86.956A14.955,14.955,0,0,0,72,310.956v29.912a14.956,14.956,0,0,0,14.956,14.956h44.868a14.956,14.956,0,0,0,14.956-14.956V310.956A14.955,14.955,0,0,0,131.824,296Zm0,44.868H86.956V310.956h44.868Z" transform="translate(-72 -296)"/></g></g><g class="a" transform="translate(74.78 157.56)"><g class="a"><path class="b" d="M87.478,168A7.478,7.478,0,0,0,80,175.478v14.956a7.478,7.478,0,1,0,14.956,0V175.478A7.478,7.478,0,0,0,87.478,168Z" transform="translate(-80 -168)"/></g></g><g class="a" transform="translate(112.17 157.56)"><g class="a"><path class="b" d="M127.478,168A7.478,7.478,0,0,0,120,175.478v14.956a7.478,7.478,0,1,0,14.956,0V175.478A7.478,7.478,0,0,0,127.478,168Z" transform="translate(-120 -168)"/></g></g><g class="a" transform="translate(149.56 157.56)"><g class="a"><path class="b" d="M167.478,168A7.478,7.478,0,0,0,160,175.478v14.956a7.478,7.478,0,1,0,14.956,0V175.478A7.478,7.478,0,0,0,167.478,168Z" transform="translate(-160 -168)"/></g></g><g class="a" transform="translate(186.95 157.56)"><g class="a"><path class="b" d="M207.478,168A7.478,7.478,0,0,0,200,175.478v14.956a7.478,7.478,0,0,0,14.956,0V175.478A7.478,7.478,0,0,0,207.478,168Z" transform="translate(-200 -168)"/></g></g><g class="a" transform="translate(224.34 157.56)"><g class="a"><path class="b" d="M247.478,168A7.478,7.478,0,0,0,240,175.478v14.956a7.478,7.478,0,1,0,14.956,0V175.478A7.478,7.478,0,0,0,247.478,168Z" transform="translate(-240 -168)"/></g></g><g class="a" transform="translate(261.73 157.56)"><g class="a"><path class="b" d="M287.478,168A7.478,7.478,0,0,0,280,175.478v14.956a7.478,7.478,0,1,0,14.956,0V175.478A7.478,7.478,0,0,0,287.478,168Z" transform="translate(-280 -168)"/></g></g><g class="a" transform="translate(299.12 157.56)"><g class="a"><path class="b" d="M327.478,168A7.478,7.478,0,0,0,320,175.478v14.956a7.478,7.478,0,1,0,14.956,0V175.478A7.478,7.478,0,0,0,327.478,168Z" transform="translate(-320 -168)"/></g></g><g class="a" transform="translate(186.779 45.375)"><g class="a"><path class="b" d="M222.437,47.984a7.487,7.487,0,0,0-3.305.763l-14.956,7.478a7.478,7.478,0,1,0,6.242,13.591c.139-.064.278-.133.413-.206l.075-.075,4.038-2.019v32.828a7.478,7.478,0,0,0,14.956,0V55.477A7.478,7.478,0,0,0,222.437,47.984Z" transform="translate(-199.817 -47.984)"/></g></g><g class="a" transform="translate(284.406 45.375)"><g class="a"><path class="b" d="M326.466,47.984a7.487,7.487,0,0,0-3.305.763L308.2,56.225A7.478,7.478,0,0,0,314.86,69.61l.075-.075,4.038-2.019v32.828a7.478,7.478,0,1,0,14.956,0V55.477A7.478,7.478,0,0,0,326.466,47.984Z" transform="translate(-304.259 -47.984)"/></g></g><g class="a" transform="translate(231.818 52.868)"><g class="a"><path class="b" d="M285.39,70.956h-7.478V63.478a7.478,7.478,0,1,0-14.956,0v7.478h-7.478a7.478,7.478,0,1,0,0,14.956h7.478V93.39a7.478,7.478,0,1,0,14.956,0V85.912h7.478a7.478,7.478,0,0,0,0-14.956Z" transform="translate(-248 -56)"/></g></g></g></svg>