<svg xmlns="http://www.w3.org/2000/svg" width="20.256" height="20.947" viewBox="0 0 20.256 20.947">
  <path id="call-grey" d="M2709.2-8.357a4.858,4.858,0,0,1-1.053-.132,5.193,5.193,0,0,1-.97-.34,5.169,5.169,0,0,1-1.374-.939,6.3,6.3,0,0,1-1.081-1.355,7.806,7.806,0,0,1-.747-1.689,9.381,9.381,0,0,1-.383-1.931q-.092-.579-.155-1.3-.053-.61-.1-1.447t-.024-1.825q.011-.992.078-1.705c.046-.475.091-.867.138-1.174a7.24,7.24,0,0,1,.187-.9,9.266,9.266,0,0,1,.3-1.378,9.337,9.337,0,0,1,.482-1.27,7.782,7.782,0,0,1,.876-1.453,5.887,5.887,0,0,1,1.139-1.134,4.962,4.962,0,0,1,1.384-.731,4.645,4.645,0,0,1,1.607-.238l.93.014a1.036,1.036,0,0,1,.4.094.976.976,0,0,1,.414.363.946.946,0,0,1,.153.539l-.049,3.974a.984.984,0,0,1-.088.392,1,1,0,0,1-.365.42.938.938,0,0,1-.546.151l-1.842-.027a1.11,1.11,0,0,0-.647.182,1.169,1.169,0,0,0-.424.49,1.165,1.165,0,0,0-.113.473l-.1,6.737a1.111,1.111,0,0,0,.185.662,1.207,1.207,0,0,0,.493.414,1.2,1.2,0,0,0,.466.106l1.842.027a1.029,1.029,0,0,1,.4.094.986.986,0,0,1,.411.361.977.977,0,0,1,.16.54l-.053,3.975a1.009,1.009,0,0,1-.091.4.96.96,0,0,1-.36.41.98.98,0,0,1-.545.156Zm8.439-7.03c-.12-.088-3.262-2.452-3.607-2.8a.436.436,0,0,1-.142-.336.534.534,0,0,1,.183-.355l3.514-2.912a.655.655,0,0,1,.386-.217c.077,0,.256.033.255.359l0,1.494,4.947-.016a.279.279,0,0,1,.053,0,.312.312,0,0,1,.229.094.492.492,0,0,1,.115.359l-.008,2.3a.36.36,0,0,1-.346.4l-4.9.016,0,1.37c0,.383-.184.441-.293.441h0A.641.641,0,0,1,2717.635-15.387Z" transform="translate(-2703.307 29.297)" fill="#5a5a63"/>
</svg>
