<svg xmlns="http://www.w3.org/2000/svg" width="48.381" height="48" viewBox="0 0 48.381 48">
    <path data-name="Контур 543" d="M9.1 23.677v1.548l-.581-1.448A4.606 4.606 0 0 0 6 21.223V3.548A1.553 1.553 0 0 1 7.548 2H44.71a1.553 1.553 0 0 1 1.548 1.548v17.675a4.606 4.606 0 0 0-2.516 2.555l-.581 1.448V5.1H9.1v18.577z" transform="translate(-1.939 -1.226)" style="fill:#ccd1d9"/>
    <path data-name="Контур 544" d="M14.8 28.3a5.824 5.824 0 0 0-2.16 1.154l-.008-.008a6.962 6.962 0 0 0 2.555-4.575l.232-1.835h-.41A5.606 5.606 0 0 0 10 26.129v-1.548l2.075-1.037a4.647 4.647 0 0 0 2.57-4.157v-2.548l-.875.217a4.978 4.978 0 0 0-3.77 4.83V10.645A4.649 4.649 0 0 0 14.645 6h24.774a4.649 4.649 0 0 0 4.645 4.645v11.241a4.978 4.978 0 0 0-3.77-4.831l-.875-.217v2.547a4.647 4.647 0 0 0 2.57 4.157l2.075 1.037v1.548a5.606 5.606 0 0 0-5.009-3.1h-.41l.232 1.835a6.993 6.993 0 0 0 2.431 4.475l-.008.008a5.671 5.671 0 0 0-2.035-1.045l-2.165-.623v3.484a6.107 6.107 0 0 0 .039.65A7.519 7.519 0 0 0 34 30s-.333 1.332-.565 2.253a7.123 7.123 0 0 0-.209 1.726 6.633 6.633 0 0 0 2.9 5.489 11.355 11.355 0 0 1-1.548.4h-.008a7.738 7.738 0 0 0-15.081 0h-.008a11.355 11.355 0 0 1-1.548-.4 6.633 6.633 0 0 0 2.9-5.489 7.123 7.123 0 0 0-.209-1.726C20.4 31.332 20.065 30 20.065 30a7.519 7.519 0 0 0-3.135 1.812 6.106 6.106 0 0 0 .039-.65v-3.485z" transform="translate(-2.842 -2.129)" style="fill:#e6e9ed"/>
    <path data-name="Контур 545" d="M44.065 6v4.645A4.649 4.649 0 0 1 39.419 6zM10 6h4.645A4.649 4.649 0 0 1 10 10.645z" transform="translate(-2.842 -2.129)" style="fill:#ffeaa7"/>
    <path data-name="Контур 546" d="M20 12h18.581v3.1H20z" transform="translate(-5.1 -3.484)" style="fill:#3dc439"/>
    <path data-name="Контур 547" d="m53.235 30.645.581-1.448a4.682 4.682 0 0 1 3.546-2.857l2.066-.34v1.022a4.645 4.645 0 0 1-3.515 4.506l-2.678.666zm2.957 5.265-3.608.9a11.67 11.67 0 0 0 .434-1.587A10.576 10.576 0 0 0 53.2 33.8l.046-.085a3.832 3.832 0 0 1 2.392-1.99l3.786-1.084-.356 2.145a3.888 3.888 0 0 1-2.876 3.124zm-4 1.889.836-.565a7.012 7.012 0 0 1 3.863-1.169h2.539l-.116.581a6.185 6.185 0 0 1-3.685 4.5l-.379-.279a4.639 4.639 0 0 0-4.637-.542 11.305 11.305 0 0 0 1.569-2.525z" transform="translate(-12.012 -6.645)" style="fill:#3dc439"/>
    <path data-name="Контур 548" d="m56.177 46.323-1.719 1.285a5.147 5.147 0 0 1-3.1 1.037l-.008.008a6.154 6.154 0 0 0-4.1-1.556h-.75a10.44 10.44 0 0 0 1.161-.774 11.385 11.385 0 0 0 2.021-1.935 4.639 4.639 0 0 1 4.637.542l.379.279z" transform="translate(-11.084 -10.71)" style="fill:#3dc439"/>
    <path data-name="Контур 549" d="m52.009 51 .519.867-1.471.488a5.383 5.383 0 0 1-1.75.286 5.541 5.541 0 0 1-5.141-3.476l-.116-.294A11.018 11.018 0 0 0 45.939 48h.761a6.258 6.258 0 0 1 5.311 3z" transform="translate(-10.531 -11.613)" style="fill:#3dc439"/>
    <path data-name="Контур 550" d="M43.135 46.391c-.077.031-.155.054-.232.077A6.633 6.633 0 0 1 40 40.979a7.122 7.122 0 0 1 .209-1.726c.232-.921.565-2.253.565-2.253a7.485 7.485 0 0 1 5.419 7.185v.557a10.438 10.438 0 0 1-1.161.774h-.008a11.018 11.018 0 0 1-1.889.875z" transform="translate(-9.616 -9.129)" style="fill:#3dc439"/>
    <path data-name="Контур 551" d="M49.343 42.129a11.385 11.385 0 0 1-2.021 1.935v-.557a7.454 7.454 0 0 0-1.51-4.5 7.538 7.538 0 0 0-.774-.875 6.107 6.107 0 0 1-.039-.65V34l2.168.619a5.671 5.671 0 0 1 2.033 1.053 5.853 5.853 0 0 1 2.036 3.159 7.455 7.455 0 0 1-.325.774 11.306 11.306 0 0 1-1.572 2.524z" transform="translate(-10.745 -8.452)" style="fill:#3dc439"/>
    <path data-name="Контур 552" d="M44.065 30.839v.774c0 .279-.008.557-.031.836a10.574 10.574 0 0 1-.186 1.417l-.263-.093a6.9 6.9 0 0 1-2.276-1.27 6.992 6.992 0 0 1-2.431-4.475l-.232-1.835h.41a5.606 5.606 0 0 1 5.009 3.1zm0-5.791v2.694L41.99 26.7a4.647 4.647 0 0 1-2.57-4.157V20l.875.217a4.978 4.978 0 0 1 3.77 4.831zM14.645 20v2.547a4.647 4.647 0 0 1-2.57 4.157L10 27.742v-2.694a4.978 4.978 0 0 1 3.77-4.831zm-2.013 12.6a6.9 6.9 0 0 1-2.152 1.169l-.263.093a10.743 10.743 0 0 1-.186-1.417 10.154 10.154 0 0 1-.031-.836V29.29a5.606 5.606 0 0 1 5.009-3.1h.41l-.232 1.835a6.962 6.962 0 0 1-2.555 4.575z" transform="translate(-2.842 -5.29)" style="fill:#3dc439"/>
    <path data-name="Контур 553" d="M12.837 42.129a11.306 11.306 0 0 1-1.572-2.524 7.456 7.456 0 0 1-.325-.774 5.884 5.884 0 0 1 4.072-4.212L17.18 34v3.484a6.106 6.106 0 0 1-.039.65 7.538 7.538 0 0 0-.774.875 7.455 7.455 0 0 0-1.51 4.5v.557a11.385 11.385 0 0 1-2.02-1.937z" transform="translate(-3.054 -8.452)" style="fill:#3dc439"/>
    <path data-name="Контур 554" d="M21.985 39.253a7.122 7.122 0 0 1 .209 1.726 6.633 6.633 0 0 1-2.9 5.489c-.077-.023-.155-.054-.232-.077a11.018 11.018 0 0 1-1.889-.875h-.008A10.438 10.438 0 0 1 16 44.742v-.557A7.485 7.485 0 0 1 21.419 37s.333 1.332.566 2.253z" transform="translate(-4.197 -9.129)" style="fill:#3dc439"/>
    <path data-name="Контур 555" d="m17.477 48.875-.116.294a5.541 5.541 0 0 1-5.141 3.476 5.382 5.382 0 0 1-1.75-.286L9 51.871 9.519 51a6.258 6.258 0 0 1 5.311-3h.759a11.018 11.018 0 0 0 1.888.875z" transform="translate(-2.616 -11.613)" style="fill:#3dc439"/>
    <path data-name="Контур 556" d="M13.926 47.1a6.154 6.154 0 0 0-4.1 1.556l-.008-.008a5.147 5.147 0 0 1-3.1-1.037L5 46.323l1.479-1.115.379-.279a4.639 4.639 0 0 1 4.637-.542 11.384 11.384 0 0 0 2.021 1.935 10.438 10.438 0 0 0 1.161.774z" transform="translate(-1.713 -10.71)" style="fill:#3dc439"/>
    <path data-name="Контур 557" d="M9.239 37.8h.008a11.306 11.306 0 0 0 1.572 2.524 4.639 4.639 0 0 0-4.637.542l-.379.279a6.185 6.185 0 0 1-3.685-4.5L2 36.065h2.539A7.012 7.012 0 0 1 8.4 37.234zm-.829-2.579a11.984 11.984 0 0 0 .434 1.587l-3.608-.9a3.888 3.888 0 0 1-2.88-3.12L2 30.645l3.786 1.084a3.831 3.831 0 0 1 2.392 1.99l.046.085a10.743 10.743 0 0 0 .186 1.417zm-.217-4.575v1.548l-2.679-.666A4.645 4.645 0 0 1 2 27.022V26l2.067.341a4.639 4.639 0 0 1 1.03.3A4.606 4.606 0 0 1 7.613 29.2z" transform="translate(-1.035 -6.645)" style="fill:#3dc439"/>
    <path data-name="Контур 558" d="M37.283 48a7.607 7.607 0 0 1 .2 1.742 7.742 7.742 0 0 1-15.484 0A7.606 7.606 0 0 1 22.2 48a7.738 7.738 0 0 1 15.081 0z" transform="translate(-5.551 -10.258)" style="fill:#fcd770"/>
    <path data-name="Контур 559" d="m48.577 27.269.558-3.35-1.006.287a5.388 5.388 0 0 0 .816-2.834v-1.931l-2.968.495c-.043.007-.085.022-.129.03V3.323A2.325 2.325 0 0 0 43.525 1H6.364a2.325 2.325 0 0 0-2.323 2.323v16.642c-.043-.009-.085-.023-.129-.03l-2.968-.494v1.932a5.388 5.388 0 0 0 .816 2.834L.754 23.92l.558 3.35a4.636 4.636 0 0 0 1.159 2.375H.773l.3 1.507A6.944 6.944 0 0 0 4.1 35.6l-1.349 1.013 2.542 1.906a5.954 5.954 0 0 0 2.05.972c-.12.165-.244.327-.35.5l-1.016 1.697 2.386.8a6.341 6.341 0 0 0 2 .323 6.264 6.264 0 0 0 5.678-3.6c.158.046.318.084.478.125a8.512 8.512 0 1 0 16.946 1.153 8.451 8.451 0 0 0-.087-1.153c.16-.04.321-.078.478-.124a6.286 6.286 0 0 0 7.674 3.276l2.386-.8L42.9 40a5.638 5.638 0 0 0-.35-.5 5.944 5.944 0 0 0 2.049-.972l2.543-1.906-1.349-1.022a6.944 6.944 0 0 0 3.021-4.452l.3-1.507h-1.7a4.636 4.636 0 0 0 1.159-2.376zm-35.245 8.949v-.159a6.738 6.738 0 0 1 4.1-6.177l.356 1.425a6.383 6.383 0 0 1 .189 1.545 5.856 5.856 0 0 1-2.267 4.619 10.775 10.775 0 0 1-2.378-1.254zm-1-12.574A6.22 6.22 0 0 1 8.757 28.5a10.934 10.934 0 0 1-.07-1.175v-2.119a4.792 4.792 0 0 1 3.764-2.506zm-.55-5.385a3.849 3.849 0 0 1-2.14 3.462l-.957.478v-1.444a4.194 4.194 0 0 1 3.1-4.052zm-6.5 8.566a3.108 3.108 0 0 1 1.9 1.559 12.431 12.431 0 0 0 .276 1.706l-2.318-.58a3.1 3.1 0 0 1-2.3-2.5l-.156-.934zm4.177 4.514a5.089 5.089 0 0 1 3.461-3.426l1.18-.338v2.454c0 .111-.012.222-.02.333a8.284 8.284 0 0 0-2.225 4.626 10.849 10.849 0 0 1-2.4-3.65zm9.825-.406-.756-3.026-.77.221a8.176 8.176 0 0 0-2.11.951v-3.557l-2.518.719a7.66 7.66 0 0 0 .733-2.406l.34-2.706h-1.28c-.146 0-.287.02-.43.03a5.412 5.412 0 0 0 .839-2.9v-3.54l-1.839.46a5.738 5.738 0 0 0-2.806 1.663v-6.614a5.423 5.423 0 0 0 4.583-4.583h23.35a5.423 5.423 0 0 0 4.58 4.583v6.612a5.738 5.738 0 0 0-2.8-1.662l-1.839-.46v3.54a5.406 5.406 0 0 0 .84 2.9c-.144-.01-.285-.03-.431-.03h-1.29l.339 2.707a7.66 7.66 0 0 0 .733 2.406l-2.518-.72v3.557a8.127 8.127 0 0 0-2.11-.951l-.77-.221-.754 3.028a7.976 7.976 0 0 0-.234 1.919 7.405 7.405 0 0 0 .1 1.16 8.474 8.474 0 0 0-11.043 0 7.387 7.387 0 0 0 .1-1.159 7.923 7.923 0 0 0-.235-1.921zM8.686 8.664V5.645H11.7a3.883 3.883 0 0 1-3.014 3.019zM41.2 25.206v2.117a10.907 10.907 0 0 1-.07 1.174 6.22 6.22 0 0 1-3.577-4.854l-.118-.943a4.792 4.792 0 0 1 3.765 2.506zm1.226 4.883a12.314 12.314 0 0 0 .276-1.706 3.1 3.1 0 0 1 1.9-1.559l2.6-.744-.156.934a3.1 3.1 0 0 1-2.3 2.5zM41.2 22.2l-.957-.478a3.849 3.849 0 0 1-2.14-3.462V16.7a4.2 4.2 0 0 1 3.1 4.053zm0-13.535a3.883 3.883 0 0 1-3.019-3.019H41.2zm-7.021 28.806a5.854 5.854 0 0 1-2.267-4.618 6.4 6.4 0 0 1 .188-1.543l.357-1.426a6.736 6.736 0 0 1 4.1 6.176v.159a10.741 10.741 0 0 1-2.378 1.253zm3.849-2.484a8.284 8.284 0 0 0-2.228-4.625c-.009-.111-.02-.221-.02-.333v-2.454l1.18.338a5.092 5.092 0 0 1 3.461 3.426 10.849 10.849 0 0 1-2.393 3.649zm8.2-13.525 1.166-.194v.1a3.867 3.867 0 0 1-2.932 3.756l-1.713.428v-.407l.523-1.306a3.893 3.893 0 0 1 2.958-2.376zM5.59 3.323a.775.775 0 0 1 .774-.774h37.161a.775.775 0 0 1 .774.774v17.2a5.46 5.46 0 0 0-1.548 1.253V4.1H7.138v17.678a5.46 5.46 0 0 0-1.548-1.254zm-3.1 17.946 1.166.194a3.893 3.893 0 0 1 2.957 2.381l.523 1.306v.407l-1.713-.428a3.866 3.866 0 0 1-2.932-3.756zm.182 9.925h1.582a6.175 6.175 0 0 1 3.436 1.04l.668.446c.139.29.286.574.446.852A5.486 5.486 0 0 0 5.436 34.6a5.405 5.405 0 0 1-2.761-3.406zm2.657 5.419 1.033-.774a3.927 3.927 0 0 1 3.712-.507 12.4 12.4 0 0 0 1.445 1.449 7.026 7.026 0 0 0-2.889 1.362 4.417 4.417 0 0 1-2.412-.862zm5.027 4.645a4.758 4.758 0 0 1-1.505-.244l-.551-.185.022-.036a5.446 5.446 0 0 1 4.647-2.631h.571c.338.187.684.356 1.041.512a4.727 4.727 0 0 1-4.221 2.585zm14.586 6.194a6.968 6.968 0 1 1 6.968-6.968 6.976 6.976 0 0 1-6.966 6.968zm16.091-6.437a4.744 4.744 0 0 1-5.726-2.341c.357-.156.7-.325 1.041-.512h.571a5.446 5.446 0 0 1 4.647 2.631l.022.036zm2.631-3.734a4.418 4.418 0 0 1-2.412.862 7.006 7.006 0 0 0-2.889-1.362 12.465 12.465 0 0 0 1.445-1.449 3.933 3.933 0 0 1 3.713.508l1.032.774zm.787-2.681a5.486 5.486 0 0 0-3.369-1.068c.16-.277.307-.562.446-.852l.668-.446a6.179 6.179 0 0 1 3.436-1.04h1.579a5.4 5.4 0 0 1-2.758 3.406z" style="fill:#262536" transform="translate(-.754 -1)"/>
    <path data-name="Контур 560" d="M39.129 11H19v4.645h20.129zm-12.387 1.548h1.548V14.1h-1.548zM25.194 14.1h-1.549v-1.552h1.548zm4.645-1.548h1.548V14.1h-1.548zm3.1 0h1.548V14.1h-1.552zm-12.387 0H22.1V14.1h-1.552zM37.581 14.1h-1.549v-1.552h1.548zm-17.033 4.642H22.1v1.548h-1.552zm3.1 0h13.933v1.548H23.645zm-3.1 3.1h13.936v1.548H20.548zm15.484 0h1.548v1.548h-1.548z" transform="translate(-4.874 -3.258)" style="fill:#262536"/>
</svg>
