<svg xmlns="http://www.w3.org/2000/svg" width="18.947" height="18" viewBox="0 0 18.947 18">
  <path id="chat_w_" data-name="chat(w)" d="M9.474,1.5C4.25,1.5,0,5.325,0,10.026a7.882,7.882,0,0,0,1.506,4.612C1.319,16.7.819,18.235.092,18.961a.316.316,0,0,0,.223.539.3.3,0,0,0,.044,0,16.87,16.87,0,0,0,5.248-1.686,10.279,10.279,0,0,0,3.866.742c5.224,0,9.474-3.825,9.474-8.526S14.7,1.5,9.474,1.5ZM5.053,11.289a1.263,1.263,0,1,1,1.263-1.263A1.264,1.264,0,0,1,5.053,11.289Zm4.421,0a1.263,1.263,0,1,1,1.263-1.263A1.264,1.264,0,0,1,9.474,11.289Zm4.421,0a1.263,1.263,0,1,1,1.263-1.263A1.264,1.264,0,0,1,13.895,11.289Z" transform="translate(0 -1.5)" fill="#fbfaf6"/>
</svg>
