<svg xmlns="http://www.w3.org/2000/svg" width="25.209" height="14" viewBox="0 0 25.209 14">
  <g id="Group_120" data-name="Group 120" transform="translate(-27.791 -427)">
    <path id="phone" d="M16.561,12.52a.7.7,0,0,1,.06.28.674.674,0,0,1-.107.366.688.688,0,0,1-.3.26l-.6.275a3.378,3.378,0,0,1-.707.228,3.614,3.614,0,0,1-1.866-.118,4.416,4.416,0,0,1-1.087-.54,5.478,5.478,0,0,1-.974-.85,6.588,6.588,0,0,1-.814-1.112q-.229-.34-.482-.776-.214-.371-.489-.89T8.639,8.491q-.287-.633-.455-1.1T7.924,6.6a4.987,4.987,0,0,1-.147-.626,6.516,6.516,0,0,1-.217-.963,6.594,6.594,0,0,1-.069-.948,5.433,5.433,0,0,1,.126-1.181A4.124,4.124,0,0,1,8,1.826,3.474,3.474,0,0,1,8.666.953,3.259,3.259,0,0,1,9.615.325l.595-.267A.728.728,0,0,1,10.491,0a.684.684,0,0,1,.37.107.665.665,0,0,1,.257.3L12.263,2.94a.683.683,0,0,1,.06.275.694.694,0,0,1-.107.374.659.659,0,0,1-.3.258l-1.177.528a.782.782,0,0,0-.357.307.837.837,0,0,0-.056.77l1.932,4.3a.782.782,0,0,0,.313.365.848.848,0,0,0,.436.117.834.834,0,0,0,.327-.071l1.177-.528a.722.722,0,0,1,.28-.058.7.7,0,0,1,.629.4Z" transform="translate(20.301 427)" fill="#bcbcc0"/>
    <path id="at" d="M7,0a7,7,0,1,0,3.5,13.063l-.876-1.515A5.251,5.251,0,1,1,12.25,7v.762a.905.905,0,0,1-.875.988.876.876,0,0,1-.875-.875v-3.5H9.29a3.5,3.5,0,1,0,.085,5.18,2.609,2.609,0,0,0,2,.945A2.655,2.655,0,0,0,14,7.762V7A7.008,7.008,0,0,0,7,0ZM7,8.75A1.75,1.75,0,1,1,8.75,7,1.752,1.752,0,0,1,7,8.75Z" transform="translate(39 427)" fill="#bcbcc0"/>
  </g>
</svg>
