<svg xmlns="http://www.w3.org/2000/svg" width="48" height="46.452" viewBox="0 0 48 46.452">
    <path data-name="Контур 534" d="M20.387 20.839v4.645H8.3a15.908 15.908 0 0 1-.3-3.1A12.371 12.371 0 0 1 20.387 10v6.194h-2.322a2.323 2.323 0 0 0 0 4.645z" transform="translate(-2.581 -4.581)" style="fill:#e6e9ed"/>
    <path data-name="Контур 535" d="M60.645 16.774v7.742a.776.776 0 0 1-.774.774h-3.1a.776.776 0 0 1-.771-.774v-7.742a.767.767 0 0 1 .774-.774h3.1a.776.776 0 0 1 .771.774z" transform="translate(-13.419 -5.935)" style="fill:#3dc439"/>
    <path data-name="Контур 536" d="M6.645 46.774v9.29a.772.772 0 0 1-.085.348.761.761 0 0 1-.689.426h-3.1A.776.776 0 0 1 2 56.065v-9.29A.776.776 0 0 1 2.774 46h3.1a.761.761 0 0 1 .689.426.772.772 0 0 1 .082.348z" transform="translate(-1.226 -12.71)" style="fill:#bcbcc0"/>
    <path data-name="Контур 537" d="M30.2 57.092a1.514 1.514 0 0 0 1.092.457 1.538 1.538 0 0 0-1.51 1.881 4.658 4.658 0 0 1-3.135 1.215A4.652 4.652 0 0 1 22 56h7.742a1.514 1.514 0 0 0 .458 1.092z" transform="translate(-5.742 -14.968)" style="fill:#aab2bd"/>
    <path data-name="Контур 538" d="M30.2 53.092a1.514 1.514 0 0 0 1.092.457 1.553 1.553 0 0 0-1.55 1.551H22V52h7.742a1.514 1.514 0 0 0 .458 1.092z" transform="translate(-5.742 -14.065)" style="fill:#ccd1d9"/>
    <path data-name="Контур 539" d="M22.8 33.1a2.323 2.323 0 0 1 0 4.645h-2.325v3.1h-5.264q-.36 0-.72.023v-.008l-3.151-4.2A16.223 16.223 0 0 1 8.39 30h12.085v3.1z" transform="translate(-2.669 -9.097)" style="fill:#e6e9ed"/>
    <path data-name="Контур 540" d="M34.132 35.419a14.4 14.4 0 0 0-1.75 3.1 13.536 13.536 0 0 0-.534 1.548h-.558a1.553 1.553 0 0 0-1.548 1.548H22v-.441c.108-.062.209-.132.31-.2a3.4 3.4 0 0 0 1.239-1.68l3.244-.542a1.676 1.676 0 0 0-.279-3.329h-2.966v-3.1h2.323a2.323 2.323 0 0 0 0-4.645h-2.323v-3.1h15.484l-.732 3.277a14.574 14.574 0 0 1-3.337 6.519 10.747 10.747 0 0 0-.831 1.045z" transform="translate(-5.742 -3.677)" style="fill:#e6e9ed"/>
    <path data-name="Контур 561" d="M35.014 8.013a5.682 5.682 0 0 1 3.809 4.452l.062.387a3.386 3.386 0 0 1-.836-1.076 2.037 2.037 0 0 0-1.827-1.13 1.824 1.824 0 0 0-1.835 1.835 1.893 1.893 0 0 0 .24.914 9.906 9.906 0 0 0 3.631 3.654 10.075 10.075 0 0 0 2.385.991l-.062.348v3.1H28.194v-4.649h-2.323a2.323 2.323 0 0 1 0-4.645h2.323V6h3.112a1.345 1.345 0 0 0 .906 1.084z" transform="translate(-5.742 -3.677)" style="fill:#3dc439"/>
    <path data-name="Контур 541" d="M35.389 35.425a1.514 1.514 0 0 1 .457 1.092 1.553 1.553 0 0 1-1.546 1.548h-5.1a14.4 14.4 0 0 1 1.75-3.1h3.35a1.514 1.514 0 0 1 1.089.46zM31.2 42.71a1.56 1.56 0 0 1 1.548 1.548 1.553 1.553 0 0 1-1.548 1.548h-3.1a1.56 1.56 0 0 1-1.548-1.548A1.553 1.553 0 0 1 28.1 42.71zm0 3.1a1.56 1.56 0 0 1 1.548 1.548A1.553 1.553 0 0 1 31.2 48.9h-3.1a1.514 1.514 0 0 1-1.092-.457 1.473 1.473 0 0 1-.418-.759 1.538 1.538 0 0 1 1.51-1.881zm1.092-5.737a1.514 1.514 0 0 1 .457 1.092A1.553 1.553 0 0 1 31.2 42.71h-3.1a1.56 1.56 0 0 1-1.548-1.548 1.553 1.553 0 0 1 1.548-1.549h3.1a1.514 1.514 0 0 1 1.093.457zm-13.478 1.088v3.1a4.652 4.652 0 0 0 4.645 4.639H15.1a13.741 13.741 0 0 1-6.163-1.455l-1.047-.516a.772.772 0 0 0 .085-.348V37.29a.772.772 0 0 0-.085-.348l1.045-.519a13.631 13.631 0 0 1 5.443-1.432q.36-.023.72-.023h8.23a1.676 1.676 0 0 1 .279 3.329l-3.244.542a3.4 3.4 0 0 1-1.239 1.68c-.1.07-.2.139-.31.2zM35.7 12.4l-.062-.387a5.682 5.682 0 0 0-3.809-4.452l-2.8-.929a1.345 1.345 0 0 1-.906-1.084 1.762 1.762 0 0 1-.015-.2A1.348 1.348 0 0 1 29.451 4H31.1a13.208 13.208 0 0 1 10.986 5.876 13.354 13.354 0 0 0 1.649 2.013l1.626 1.626a.785.785 0 0 0-.225.55v7.742l-3.012-3.012a2.93 2.93 0 0 0-2.075-.859 9.979 9.979 0 0 1-2.594-.348 10.075 10.075 0 0 1-2.385-.991 9.906 9.906 0 0 1-3.631-3.654 1.893 1.893 0 0 1-.24-.914 1.824 1.824 0 0 1 1.835-1.835 2.037 2.037 0 0 1 1.827 1.13A3.386 3.386 0 0 0 35.7 12.4z" transform="translate(-2.556 -3.226)" style="fill:#e5ccb2"/>
    <path data-name="Контур 542" d="M47.452 12.29h-3.1a1.517 1.517 0 0 0-.4.058l-1.221-1.228a12.517 12.517 0 0 1-1.553-1.894A13.949 13.949 0 0 0 29.546 3H27.9a2.12 2.12 0 0 0-2.035 1.548h-3.188v6.194h-1.548a3.065 3.065 0 0 0-1.548.43V7.645h-.774A13.176 13.176 0 0 0 5.645 20.806a17.141 17.141 0 0 0 3.407 10.22l2.333 3.11A14.607 14.607 0 0 0 7.036 35.5l-.54.27a1.539 1.539 0 0 0-.852-.257h-3.1A1.55 1.55 0 0 0 1 37.065v9.29A1.55 1.55 0 0 0 2.548 47.9h3.1a1.539 1.539 0 0 0 .852-.257l.54.27a14.622 14.622 0 0 0 6.5 1.535h8.36a5.407 5.407 0 0 0 2.881-.83 2.307 2.307 0 0 0 1.764.83h3.1a2.313 2.313 0 0 0 1.719-3.871 2.287 2.287 0 0 0 0-3.1 2.313 2.313 0 0 0-1.719-3.871h3.1a2.323 2.323 0 0 0 0-4.645h-1.73a15.389 15.389 0 0 0 3.307-6.622l.938-4.217H19.581v-4.638h-3.1a1.548 1.548 0 1 1 0-3.1h1.979a3.087 3.087 0 0 0 2.666 1.548h1.548v4.645h13.939V18.31a10.648 10.648 0 0 0 1.884.173 2.144 2.144 0 0 1 1.524.631l2.836 2.836a1.546 1.546 0 0 0 1.5 1.178h3.1A1.55 1.55 0 0 0 49 21.581v-7.742a1.55 1.55 0 0 0-1.548-1.549zM10.29 30.1a15.542 15.542 0 0 1-2.59-5.423h10.332v3.1h3.1a1.548 1.548 0 0 1 0 3.1h-3.1v3.1h-4.491c-.113 0-.227.007-.34.01zM2.548 46.355v-9.29h3.1v9.29zM13.541 47.9a13.067 13.067 0 0 1-5.812-1.372l-.536-.268v-9.104l.536-.268a13.064 13.064 0 0 1 5.812-1.372h8.234a.9.9 0 0 1 .148 1.793l-3.7.617-.147.442a2.621 2.621 0 0 1-2.488 1.793h-.649v1.549h.649a4.175 4.175 0 0 0 .9-.108v2.431a5.4 5.4 0 0 0 1.629 3.867zm10.827-6.19a2.3 2.3 0 0 0 .461.774 2.3 2.3 0 0 0-.461.774h-6.336V41.71zm6.051 2.323a.775.775 0 0 1-.774.774h-3.1a.774.774 0 1 1 0-1.548h3.1a.775.775 0 0 1 .774.773zm-12.309.774h6.258a2.3 2.3 0 0 0 .461.774 2.3 2.3 0 0 0-.6 1.526 3.847 3.847 0 0 1-6.118-2.3zm11.535 3.1h-3.1a.774.774 0 1 1 0-1.548h3.1a.774.774 0 1 1 0 1.548zm.774-6.968a.775.775 0 0 1-.774.774h-3.1a.774.774 0 1 1 0-1.548h3.1a.775.775 0 0 1 .774.77zm3.1-4.645a.775.775 0 0 1-.774.774h-3.87a13.9 13.9 0 0 1 .919-1.548h2.951a.775.775 0 0 1 .771.77zm-.191-11.613-.518 2.333a13.83 13.83 0 0 1-3.157 6.173 15.456 15.456 0 0 0-3.111 5.43 2.319 2.319 0 0 0-2.17 1.548h-5.555a4.155 4.155 0 0 0 .545-.856l2.815-.469a2.451 2.451 0 0 0-.4-4.869h-2.196v-1.552h1.548a3.1 3.1 0 1 0 0-6.194h-1.548v-1.548zM16.484 13.839a3.1 3.1 0 1 0 0 6.194h1.548v3.1H7.377a15.335 15.335 0 0 1-.183-2.323A11.629 11.629 0 0 1 18.032 9.219v4.62zm18.581 6.194H24.226v-4.646h-3.1a1.548 1.548 0 1 1 0-3.1h3.1V6.1h1.784a2.118 2.118 0 0 0 1.216 1.042l2.8.935a4.889 4.889 0 0 1 1.874 1.15 2.613 2.613 0 0 0-2.69 3.871 10.713 10.713 0 0 0 5.85 4.817zm3.432-3.1a9.16 9.16 0 0 1-7.937-4.607 1.061 1.061 0 0 1 .921-1.586 1.259 1.259 0 0 1 1.133.7 4.312 4.312 0 0 0 3.878 2.4h1.67v-1.55h-1.67a2.774 2.774 0 0 1-1.634-.534l-.015-.1A6.433 6.433 0 0 0 30.521 6.6l-2.8-.935a.576.576 0 0 1 .179-1.117h1.647a12.406 12.406 0 0 1 10.342 5.535 14.011 14.011 0 0 0 1.747 2.131l1.229 1.229a1.561 1.561 0 0 0-.057.4v5.873l-1.693-1.696a3.68 3.68 0 0 0-2.615-1.085zm5.858 4.645v-7.739h3.1v7.742z" transform="translate(-1 -3)" style="fill:#262536"/>
</svg>
