<svg xmlns="http://www.w3.org/2000/svg" width="120" height="120" viewBox="0 0 120 120">
  <g id="hourglass" transform="translate(-26.266 36)">
    <circle id="Ellipse_21" data-name="Ellipse 21" cx="40" cy="40" r="40" transform="translate(46.266 -16)" fill="#79a7c6" opacity="0.5"/>
    <g id="Ellipse_22" data-name="Ellipse 22" transform="translate(26.266 -36)" fill="none" stroke="#fff" stroke-width="18" opacity="0.1">
      <circle cx="60" cy="60" r="60" stroke="none"/>
      <circle cx="60" cy="60" r="51" fill="none"/>
    </g>
    <g id="Group_104" data-name="Group 104" transform="translate(68.266)">
      <g id="Group_103" data-name="Group 103" transform="translate(0)">
        <path id="Path_342" data-name="Path 342" d="M89.888,23.218a.8.8,0,0,0,.355-.083C93.738,21.4,101.866,16.382,101.866,7.2V4.8a1.6,1.6,0,0,0,1.6-1.6V1.6a1.6,1.6,0,0,0-1.6-1.6h-32a1.6,1.6,0,0,0-1.6,1.6V3.2a1.6,1.6,0,0,0,1.6,1.6V7.2c0,10.331,10.322,16.01,15.78,17.569,11.565,3.3,14.62,11.931,14.62,16.031V44a.8.8,0,0,0,.8.8h.8v1.6h-32V44.8h28a.8.8,0,1,0,0-1.6h-26.4V40.8c0-8.282,7.5-12.9,10.724-14.5a.8.8,0,1,0-.71-1.434C77.988,26.6,69.866,31.622,69.866,40.8v2.4a1.6,1.6,0,0,0-1.6,1.6v1.6a1.6,1.6,0,0,0,1.6,1.6h32a1.6,1.6,0,0,0,1.6-1.6V44.8a1.6,1.6,0,0,0-1.6-1.6V40.8c0-10.331-10.322-16.01-15.78-17.569C74.521,19.926,71.466,11.3,71.466,7.2V4a.8.8,0,0,0-.8-.8h-.8V1.6h32V3.2h-28a.8.8,0,1,0,0,1.6h26.4V7.2c0,8.286-7.506,12.9-10.734,14.5a.8.8,0,0,0,.356,1.517Z" transform="translate(-68.266)" fill="#262536"/>
        <path id="Path_343" data-name="Path 343" d="M248.484,317.334a.8.8,0,1,0,0-1.6h-.008a.8.8,0,1,0,.008,1.6Z" transform="translate(-230.86 -286.134)" fill="#262536"/>
        <path id="Path_344" data-name="Path 344" d="M233.6,81.067a.8.8,0,0,0,.8-.8v-.114a3.193,3.193,0,0,0-.8-6.286,1.6,1.6,0,1,1,1.6-1.6.8.8,0,1,0,1.6,0,3.2,3.2,0,0,0-2.4-3.086v-.114a.8.8,0,1,0-1.6,0v.114a3.193,3.193,0,0,0,.8,6.286,1.6,1.6,0,1,1-1.6,1.6.8.8,0,1,0-1.6,0,3.2,3.2,0,0,0,2.4,3.086v.114A.8.8,0,0,0,233.6,81.067Z" transform="translate(-215.2 -61.867)" fill="#262536"/>
        <path id="Path_345" data-name="Path 345" d="M120.071,385.639a.8.8,0,1,0,.389,1.552c.061-.016,6.253-1.53,11.586-.007a21.44,21.44,0,0,0,5.838.746,29.693,29.693,0,0,0,6.577-.739.8.8,0,1,0-.389-1.552c-.062.015-6.254,1.53-11.586.007C126.744,384,120.341,385.571,120.071,385.639Z" transform="translate(-114.665 -348.815)" fill="#262536"/>
        <path id="Path_346" data-name="Path 346" d="M248.484,351.467a.8.8,0,1,0,0-1.6h-.008a.8.8,0,1,0,.008,1.6Z" transform="translate(-230.86 -317.067)" fill="#262536"/>
        <path id="Path_347" data-name="Path 347" d="M248.484,283.2a.8.8,0,1,0,0-1.6h-.008a.8.8,0,1,0,.008,1.6Z" transform="translate(-230.86 -255.201)" fill="#262536"/>
      </g>
    </g>
  </g>
</svg>
