<svg xmlns="http://www.w3.org/2000/svg" width="24" height="24" viewBox="0 0 24 24">
  <path id="info" d="M11.839,0A12,12,0,1,0,24,11.838,12,12,0,0,0,11.839,0Zm1.33,4a1.379,1.379,0,0,1,1.58,1.517,2.014,2.014,0,0,1-2.19,1.946c-1.156,0-1.705-.581-1.673-1.542A2.066,2.066,0,0,1,13.17,4ZM10.043,19.5c-.833,0-1.444-.506-.861-2.731l.956-3.946c.166-.632.194-.885,0-.885a6.347,6.347,0,0,0-1.971.867l-.417-.683c2.028-1.693,4.36-2.687,5.359-2.687.833,0,.972.986.556,2.5l-1.1,4.148c-.194.733-.111.986.083.986a4.317,4.317,0,0,0,1.875-.937l.472.632A8.717,8.717,0,0,1,10.043,19.5Z" transform="translate(0 0)" fill="#79a7c6"/>
</svg>
