<svg xmlns="http://www.w3.org/2000/svg" width="24" height="25.009" viewBox="0 0 24 25.009">
  <g id="light-bulb_w_" data-name="light-bulb(w)" transform="translate(-9.8)">
    <path id="XMLID_49_" d="M24.651,21.854v.731a1.159,1.159,0,0,1-.983,1.148l-.18.664a.826.826,0,0,1-.8.612H20.9a.826.826,0,0,1-.8-.612l-.175-.664a1.164,1.164,0,0,1-.988-1.153v-.731a.7.7,0,0,1,.7-.7h4.3A.71.71,0,0,1,24.651,21.854Zm3.309-9.849a6.13,6.13,0,0,1-1.729,4.276,5.65,5.65,0,0,0-1.513,3.067,1.019,1.019,0,0,1-1.009.859H19.886a1.009,1.009,0,0,1-1-.854,5.712,5.712,0,0,0-1.523-3.077,6.16,6.16,0,1,1,10.6-4.271ZM22.495,8.274A.7.7,0,0,0,21.8,7.58a4.45,4.45,0,0,0-4.446,4.446.695.695,0,1,0,1.389,0A3.06,3.06,0,0,1,21.8,8.969.692.692,0,0,0,22.495,8.274ZM21.8,3.823a.7.7,0,0,0,.695-.695V.695a.695.695,0,0,0-1.389,0V3.129A.7.7,0,0,0,21.8,3.823ZM13.623,12a.7.7,0,0,0-.695-.695H10.495a.695.695,0,1,0,0,1.389h2.434A.692.692,0,0,0,13.623,12Zm19.482-.695H30.671a.695.695,0,1,0,0,1.389h2.434a.695.695,0,1,0,0-1.389ZM15.038,17.784l-1.724,1.724a.693.693,0,0,0,.978.983l1.724-1.724a.693.693,0,0,0-.978-.983ZM28.073,6.422a.694.694,0,0,0,.489-.2L30.285,4.5a.695.695,0,0,0-.983-.983L27.579,5.238a.693.693,0,0,0,0,.983A.706.706,0,0,0,28.073,6.422ZM15.038,6.216a.693.693,0,0,0,.978-.983L14.292,3.509a.695.695,0,1,0-.983.983ZM28.562,17.784a.695.695,0,0,0-.983.983L29.3,20.491a.693.693,0,1,0,.978-.983Z" fill="#fbfaf6"/>
    <circle id="Ellipse_26" data-name="Ellipse 26" cx="6" cy="6" r="6" transform="translate(15.8 6)" fill="#fbfaf6"/>
  </g>
</svg>
