<svg xmlns="http://www.w3.org/2000/svg" width="48" height="48" viewBox="0 0 48 48">
    <path data-name="Контур 481" d="M28.323 39.814v4.645l-1.9.449a11.343 11.343 0 0 1-1.339 3.236l1.024 1.656-3.283 3.283-1.657-1.022a11.344 11.344 0 0 1-3.235 1.339l-.449 1.9h-4.645l-.449-1.9a11.344 11.344 0 0 1-3.236-1.339L7.5 53.084 4.214 49.8l1.022-1.657A11.343 11.343 0 0 1 3.9 44.908L2 44.459v-4.645l1.9-.449a11.343 11.343 0 0 1 1.339-3.236l-1.025-1.657 2.145-2.152 2.865 3.724a8.516 8.516 0 1 0 11.876 0l2.865-3.724 2.145 2.152-1.022 1.657a11.343 11.343 0 0 1 1.339 3.236z" transform="translate(-1.226 -8.072)" style="fill:#3dc439"/>
    <path data-name="Контур 482" d="M22.839 42v.774a5.419 5.419 0 0 1-10.839 0V42z" transform="translate(-3.484 -10.258)" style="fill:#bcbcc0"/>
    <path data-name="Контур 483" d="M22.839 38v3.1H12V38h10.839z" transform="translate(-3.484 -9.355)" style="fill:#e6e9ed"/>
    <path data-name="Контур 484" d="M24.483 5.871A13.161 13.161 0 0 0 2 15.161v.17a13.13 13.13 0 0 0 2.733 8.021l1.626 2.121L9.223 29.2l.519.674h10.839l.519-.674 2.865-3.724 1.626-2.121a12.606 12.606 0 0 0 1.27-2 13.081 13.081 0 0 0 1.463-6.023v-.17a13.1 13.1 0 0 0-3.841-9.291z" transform="translate(-1.226 -1.226)" style="fill:#ffeaa7"/>
    <path data-name="Контур 485" d="M23.254 13.681a2.319 2.319 0 0 1-1.641 3.964H19.29v-2.323a2.321 2.321 0 0 1 3.964-1.641zm-8.609 1.641v2.323h-2.322a2.325 2.325 0 1 1 2.323-2.323z" transform="translate(-3.032 -3.709)" style="fill:#fcd770"/>
    <path data-name="Контур 486" d="M57.484 12.548v6.194a1.553 1.553 0 0 1-1.548 1.548H43.548A1.553 1.553 0 0 1 42 18.742v-6.194A1.553 1.553 0 0 1 43.548 11h12.387a1.553 1.553 0 0 1 1.549 1.548z" transform="translate(-10.258 -3.258)" style="fill:#3dc439"/>
    <path data-name="Контур 562" d="M57.484 28.032v6.194a1.553 1.553 0 0 1-1.548 1.548H43.548A1.553 1.553 0 0 1 42 34.226v-6.194a1.553 1.553 0 0 1 1.548-1.548h12.387a1.553 1.553 0 0 1 1.549 1.548z" transform="translate(-10.258 -3.258)" style="fill:#e6e9ed"/>
    <path data-name="Контур 488" d="M34.29 7.968a2.325 2.325 0 0 0-2.323 2.323v6.194a2.325 2.325 0 0 0 2.323 2.323h12.387A2.325 2.325 0 0 0 49 16.484V10.29a2.325 2.325 0 0 0-2.323-2.323h-5.419v-.773a2.325 2.325 0 0 0-2.323-2.323H24.548A13.917 13.917 0 0 0 1 14.935v.165a14.009 14.009 0 0 0 2.89 8.5l1.218 1.584-2.1 2.1 1.1 1.783a12.337 12.337 0 0 0-1.069 2.58L1 32.129V38l2.04.48a12.3 12.3 0 0 0 1.069 2.58l-1.1 1.783 4.152 4.152 1.782-1.1a12.306 12.306 0 0 0 2.58 1.069L12 49h5.871l.48-2.04a12.306 12.306 0 0 0 2.58-1.069l1.782 1.1 4.152-4.152-1.1-1.783a12.272 12.272 0 0 0 1.069-2.58l2.04-.48v-5.867l-2.04-.48a12.3 12.3 0 0 0-1.069-2.58l1.1-1.783-2.1-2.1L25.98 23.6a13.839 13.839 0 0 0 1.107-1.7h11.848a.775.775 0 0 1 .774.774v.774H34.29a2.325 2.325 0 0 0-2.323 2.323v6.194a2.325 2.325 0 0 0 2.323 2.325h12.387A2.325 2.325 0 0 0 49 31.968v-6.194a2.325 2.325 0 0 0-2.323-2.323h-5.419v-.774a2.325 2.325 0 0 0-2.323-2.323H27.83a13.976 13.976 0 0 0 1.041-5.254v-.169a13.852 13.852 0 0 0-2.93-8.516h12.994a.775.775 0 0 1 .774.774v.774zm13.162 17.806v6.194a.775.775 0 0 1-.774.774H34.29a.775.775 0 0 1-.774-.774v-6.194A.775.775 0 0 1 34.29 25h12.387a.775.775 0 0 1 .775.774zM24.9 27.515l-.951 1.538.246.4a10.761 10.761 0 0 1 1.253 3.022l.113.461 1.758.415v3.419l-1.759.414-.113.461a10.735 10.735 0 0 1-1.247 3.026l-.246.4.951 1.538-2.418 2.418-1.538-.951-.406.246a10.75 10.75 0 0 1-3.022 1.252l-.461.113-.413 1.761h-3.421l-.414-1.76-.461-.113a10.759 10.759 0 0 1-3.022-1.252l-.406-.246-1.538.951-2.417-2.414.951-1.538-.246-.4A10.761 10.761 0 0 1 4.42 37.65l-.113-.461-1.758-.415v-3.419l1.759-.414.113-.461a10.739 10.739 0 0 1 1.253-3.022l.246-.4-.951-1.538 1.092-1.092 1.923 2.5a9.186 9.186 0 0 0-2.339 6.142 9.29 9.29 0 1 0 18.581 0 9.192 9.192 0 0 0-2.338-6.142l1.923-2.5zm-5.323 2.9v1.548H10.29v-1.544zm-7.738-16.254H10.29a1.548 1.548 0 1 1 1.548-1.548zm4.645 14.71h-3.1V15.71h3.1zM14.935 39.71a6.2 6.2 0 0 0 6.194-6.194v-3.077a7.654 7.654 0 0 1 1.548 4.626 7.742 7.742 0 0 1-15.484 0 7.654 7.654 0 0 1 1.548-4.626v3.077a6.2 6.2 0 0 0 6.194 6.194zm-4.645-6.194h9.29a4.645 4.645 0 0 1-9.29 0zM27.323 15.1a12.449 12.449 0 0 1-2.569 7.553l-4.78 6.214h-1.942V15.71h1.548a3.1 3.1 0 1 0-3.1-3.1v1.548h-3.1v-1.545a3.1 3.1 0 1 0-3.1 3.1h1.548v13.158H9.9l-4.78-6.214A12.451 12.451 0 0 1 2.548 15.1v-.169a12.387 12.387 0 0 1 24.774 0zm-9.29-.943v-1.544a1.548 1.548 0 1 1 1.548 1.548zm29.419-3.867v6.194a.775.775 0 0 1-.774.774H34.29a.775.775 0 0 1-.774-.774V10.29a.775.775 0 0 1 .774-.774h12.387a.775.775 0 0 1 .775.774z" transform="translate(-1 -1)" style="fill:#262536"/>
    <path data-name="Контур 489" d="M45 14h10.839v1.548H45zm9.29 3.1h1.548v1.548H54.29zm-9.29 0h7.742v1.548H45zm0 12.387h10.839v1.548H45zm9.29 3.1h1.548v1.548H54.29zm-9.29 0h7.742v1.548H45z" transform="translate(-10.935 -3.935)" style="fill:#262536"/>
</svg>
