<svg xmlns="http://www.w3.org/2000/svg" width="120" height="120" viewBox="0 0 120 120">
  <g id="log" transform="translate(36 -12.202)">
    <circle id="Ellipse_21" data-name="Ellipse 21" cx="40" cy="40" r="40" transform="translate(-16 32.202)" fill="#79a7c6" opacity="0.5"/>
    <g id="Ellipse_22" data-name="Ellipse 22" transform="translate(-36 12.202)" fill="none" stroke="#fff" stroke-width="18" opacity="0.1">
      <circle cx="60" cy="60" r="60" stroke="none"/>
      <circle cx="60" cy="60" r="51" fill="none"/>
    </g>
    <g id="Group_102" data-name="Group 102" transform="translate(0 51.202)">
      <g id="Group_101" data-name="Group 101">
        <path id="Path_328" data-name="Path 328" d="M103.2,288.347a.8.8,0,0,0,.8-.8,2.4,2.4,0,0,1,.6-1.586.8.8,0,0,0-1.2-1.058,3.99,3.99,0,0,0-1,2.645A.8.8,0,0,0,103.2,288.347Z" transform="translate(-92.798 -262.747)" fill="#262536"/>
        <path id="Path_329" data-name="Path 329" d="M96.97,383.212a.8.8,0,0,0,.337,1.08A8.828,8.828,0,0,0,101.4,385.3a.8.8,0,1,0,0-1.6,7.217,7.217,0,0,1-3.346-.822A.8.8,0,0,0,96.97,383.212Z" transform="translate(-87.796 -351.697)" fill="#262536"/>
        <path id="Path_330" data-name="Path 330" d="M119.558,333.051a.8.8,0,0,0-1.13-.071,2.461,2.461,0,0,1-3.176,0,.8.8,0,1,0-1.059,1.2,4,4,0,0,0,5.294,0A.8.8,0,0,0,119.558,333.051Z" transform="translate(-103.242 -306.379)" fill="#262536"/>
        <path id="Path_331" data-name="Path 331" d="M136.533,273.868a.8.8,0,0,0,.8.8,2.4,2.4,0,0,1,2.4,2.4.8.8,0,0,0,1.6,0,4,4,0,0,0-4-4A.8.8,0,0,0,136.533,273.868Z" transform="translate(-123.733 -252.268)" fill="#262536"/>
        <path id="Path_332" data-name="Path 332" d="M114.335,221.868a8.838,8.838,0,0,0-2.617.4.8.8,0,0,0,.238,1.565.785.785,0,0,0,.238-.037,7.21,7.21,0,0,1,2.142-.323.8.8,0,0,0,0-1.6Z" transform="translate(-100.734 -205.868)" fill="#262536"/>
        <path id="Path_333" data-name="Path 333" d="M26.6,80h4.6a.8.8,0,1,0,0-1.6H26.975a13.459,13.459,0,0,0-1.831-9.6H29.6a.8.8,0,1,0,0-1.6H23.948A13.78,13.78,0,0,0,22.1,65.385a.8.8,0,1,0-1,1.249A12,12,0,1,1,13.6,64H24.8a.8.8,0,0,0,.7-1.183l-4.469-8.192L23.1,53.081l6.71,7.456a.8.8,0,1,0,1.189-1.07l-7.2-8a.8.8,0,0,0-1.074-.1l-3.2,2.4a.8.8,0,0,0-.222,1.023L23.452,62.4H13.6A13.6,13.6,0,1,0,26.6,80Z" transform="translate(0 -51.202)" fill="#262536"/>
        <path id="Path_334" data-name="Path 334" d="M167.882,316.273a.785.785,0,0,0,.286-.054,8.852,8.852,0,0,0,5.65-8.218.8.8,0,1,0-1.6,0,7.243,7.243,0,0,1-4.622,6.725.8.8,0,0,0,.286,1.547Z" transform="translate(-151.418 -283.201)" fill="#262536"/>
        <path id="Path_335" data-name="Path 335" d="M243.2,170.668h-6.4a.8.8,0,1,0,0,1.6h6.4a12,12,0,0,1,11.959,11.2H252.8a.8.8,0,1,0,0,1.6h2.359a11.912,11.912,0,0,1-2.382,6.4H248a.8.8,0,0,0,0,1.6h3.331a11.943,11.943,0,0,1-8.131,3.2h-12a.8.8,0,1,0,0,1.6h12a13.6,13.6,0,1,0,0-27.2Z" transform="translate(-208.8 -159.468)" fill="#262536"/>
        <path id="Path_336" data-name="Path 336" d="M381.067,238.935h-4.8a.8.8,0,0,0,0,1.6h4.8a.8.8,0,1,0,0-1.6Z" transform="translate(-340.267 -221.335)" fill="#262536"/>
        <path id="Path_337" data-name="Path 337" d="M171.828,229.049a.8.8,0,1,0-.642,1.466,7.2,7.2,0,0,1,3.994,4.459.8.8,0,1,0,1.527-.476A8.8,8.8,0,0,0,171.828,229.049Z" transform="translate(-154.703 -212.315)" fill="#262536"/>
        <path id="Path_338" data-name="Path 338" d="M412,307.2h-1.6a.8.8,0,1,0,0,1.6H412a.8.8,0,0,0,0-1.6Z" transform="translate(-371.2 -283.201)" fill="#262536"/>
        <path id="Path_339" data-name="Path 339" d="M273.867,409.6a.8.8,0,0,0,0,1.6h3.2a.8.8,0,0,0,0-1.6Z" transform="translate(-247.467 -376.002)" fill="#262536"/>
        <path id="Path_340" data-name="Path 340" d="M54.882,247.351a.8.8,0,0,0-1.132,0,8.8,8.8,0,0,0-.789,11.478.8.8,0,1,0,1.278-.962,7.2,7.2,0,0,1,.647-9.389A.8.8,0,0,0,54.882,247.351Z" transform="translate(-46.4 -228.752)" fill="#262536"/>
        <path id="Path_341" data-name="Path 341" d="M307.2,273.869a.8.8,0,0,0,.8.8h1.6a.8.8,0,0,0,0-1.6H308A.8.8,0,0,0,307.2,273.869Z" transform="translate(-278.4 -252.269)" fill="#262536"/>
      </g>
    </g>
  </g>
</svg>
