<svg xmlns="http://www.w3.org/2000/svg" width="23.768" height="32" viewBox="0 0 23.768 32"><defs><style>.a{fill:#79a7c6;}</style></defs><g transform="translate(-62.919 0)"><g transform="translate(62.919 0)"><path class="a" d="M86.609,14.445l-1.563-2.139a.4.4,0,0,1-.007-.464l1.531-2.159a.4.4,0,0,0-.137-.582L84.1,7.851a.391.391,0,0,1-.2-.419l.438-2.61a.4.4,0,0,0-.379-.464L81.31,4.247a.4.4,0,0,1-.366-.288l-.733-2.551a.4.4,0,0,0-.543-.255L77.235,2.2a.414.414,0,0,1-.458-.1L75.01.132a.4.4,0,0,0-.6.007l-1.74,2a.393.393,0,0,1-.451.1L69.771,1.231a.4.4,0,0,0-.536.262l-.7,2.551a.406.406,0,0,1-.36.294l-2.643.15a.4.4,0,0,0-.373.471l.478,2.6a.4.4,0,0,1-.2.419L63.125,9.264a.4.4,0,0,0-.131.582l1.563,2.139a.4.4,0,0,1,.007.464l-1.531,2.159a.4.4,0,0,0,.137.582l2.335,1.249a.391.391,0,0,1,.2.419l-.438,2.61a.4.4,0,0,0,.379.464l2.643.111a.4.4,0,0,1,.366.288l.739,2.545a.4.4,0,0,0,.543.255l2.433-1.047a.414.414,0,0,1,.458.1L74.6,24.152a.4.4,0,0,0,.6-.007l1.74-2a.393.393,0,0,1,.451-.1l2.447,1.007a.4.4,0,0,0,.536-.262l.7-2.551a.406.406,0,0,1,.36-.294l2.643-.15a.4.4,0,0,0,.373-.471l-.478-2.6a.4.4,0,0,1,.2-.419l2.316-1.282A.385.385,0,0,0,86.609,14.445Zm-11.8,4.887a7.183,7.183,0,1,1,7.183-7.183A7.194,7.194,0,0,1,74.808,19.331Z" transform="translate(-62.919 0)"/><path class="a" d="M269.348,366.513a2.071,2.071,0,0,1-1.478.615,2.256,2.256,0,0,1-.6-.085l-1.688-.51-1.3,1.191c-.046.039-.085.079-.131.111l2.093,6.489a.3.3,0,0,0,.517.092l1.524-1.956a.293.293,0,0,1,.314-.1l2.375.693a.3.3,0,0,0,.366-.373Z" transform="translate(-250.99 -342.538)"/><path class="a" d="M120.9,366.533l-1.688.51a2.047,2.047,0,0,1-.6.085,2.083,2.083,0,0,1-1.478-.615l-2,6.169a.3.3,0,0,0,.366.373l2.375-.693a.289.289,0,0,1,.314.1l1.524,1.956a.3.3,0,0,0,.517-.092l2.093-6.489a1.068,1.068,0,0,1-.131-.111Z" transform="translate(-111.718 -342.537)"/><path class="a" d="M180.619,114.674l-2.708-.2-1.02-2.512a.569.569,0,0,0-1.053,0l-1.02,2.512-2.708.2a.569.569,0,0,0-.327,1l2.074,1.753-.648,2.636a.568.568,0,0,0,.85.621l2.3-1.433,2.3,1.433a.568.568,0,0,0,.85-.621l-.648-2.636,2.074-1.753A.566.566,0,0,0,180.619,114.674Z" transform="translate(-164.472 -104.312)"/></g></g></svg>