<svg xmlns="http://www.w3.org/2000/svg" width="120" height="120" viewBox="0 0 120 120">
  <g id="mortarboard" transform="translate(36 20.933)">
    <circle id="Ellipse_21" data-name="Ellipse 21" cx="40" cy="40" r="40" transform="translate(-16 -0.933)" fill="#79a7c6" opacity="0.5"/>
    <g id="Ellipse_22" data-name="Ellipse 22" transform="translate(-36 -20.933)" fill="none" stroke="#fff" stroke-width="18" opacity="0.1">
      <circle cx="60" cy="60" r="60" stroke="none"/>
      <circle cx="60" cy="60" r="51" fill="none"/>
    </g>
    <g id="Group_100" data-name="Group 100" transform="translate(0 17.068)">
      <g id="Group_99" data-name="Group 99" transform="translate(0 0)">
        <path id="Path_322" data-name="Path 322" d="M343.124,443.75a.8.8,0,0,0-.97.582l-.8,3.2a.8.8,0,0,0,.582.97.775.775,0,0,0,.194.024.8.8,0,0,0,.775-.606l.8-3.2A.8.8,0,0,0,343.124,443.75Z" transform="translate(-309.331 -403.726)" fill="#262536"/>
        <path id="Path_323" data-name="Path 323" d="M24,157.066a.792.792,0,0,0,.306-.061l8.8-3.642a.8.8,0,0,0-.613-1.478L24,155.4,1.6,146.132v-.266a.8.8,0,0,0-1.6,0v.8a.8.8,0,0,0,.494.739l23.2,9.6A.792.792,0,0,0,24,157.066Z" transform="translate(0 -133.066)" fill="#262536"/>
        <path id="Path_324" data-name="Path 324" d="M110.852,242.6a.8.8,0,0,0-1.071-.363,18.645,18.645,0,0,1-7.646,1.744V236.8a.8.8,0,0,0-1.6,0v7.17c-9.934-.317-13.139-6.334-13.6-7.336V231.2a.8.8,0,0,0-1.6,0v5.6a.809.809,0,0,0,.057.3c.139.346,3.544,8.5,15.943,8.5a20.56,20.56,0,0,0,9.154-1.933A.8.8,0,0,0,110.852,242.6Z" transform="translate(-77.335 -210.4)" fill="#262536"/>
        <path id="Path_325" data-name="Path 325" d="M376.267,452.266a.8.8,0,0,0-.8.8v2.4a.8.8,0,0,0,1.6,0v-2.4A.8.8,0,0,0,376.267,452.266Z" transform="translate(-340.267 -411.466)" fill="#262536"/>
        <path id="Path_326" data-name="Path 326" d="M47.2,29.067a.8.8,0,0,0-.8.8v.264l-9.6,3.951V32.637l10.706-4.43a.8.8,0,0,0,0-1.478l-23.2-9.6a.8.8,0,0,0-.611,0l-23.2,9.6a.8.8,0,0,0,0,1.478l23.2,9.6a.8.8,0,0,0,.611,0l8.389-3.471a.8.8,0,1,0-.611-1.478L24,36.2,2.892,27.467,24,18.733l21.108,8.734-9.185,3.8-8.8-3.285a1.91,1.91,0,0,0,.074-.516c0-1.346-1.406-2.4-3.2-2.4s-3.2,1.054-3.2,2.4,1.406,2.4,3.2,2.4a3.867,3.867,0,0,0,2.07-.57l9.13,3.409v2.563h0V52.415a2.4,2.4,0,1,0,1.6,0V47.874a9.719,9.719,0,0,0,3.156-4.145A.809.809,0,0,0,40,43.467v-5.6a.8.8,0,1,0-1.6,0V43.32a8.184,8.184,0,0,1-1.6,2.417V35.813l10.7-4.406a.8.8,0,0,0,.5-.74v-.8A.8.8,0,0,0,47.2,29.067Zm-23.2-.8c-.977,0-1.6-.474-1.6-.8s.623-.8,1.6-.8,1.6.474,1.6.8S24.977,28.267,24,28.267Zm12,27.2a.8.8,0,1,1,.8-.8A.8.8,0,0,1,36,55.467Z" transform="translate(0 -17.068)" fill="#262536"/>
        <path id="Path_327" data-name="Path 327" d="M402.642,444.334a.8.8,0,0,0-1.552.389l.8,3.2a.8.8,0,0,0,.775.606.776.776,0,0,0,.194-.024.8.8,0,0,0,.582-.97Z" transform="translate(-363.466 -403.729)" fill="#262536"/>
      </g>
    </g>
  </g>
</svg>
