<svg xmlns="http://www.w3.org/2000/svg" width="19.242" height="12.6" viewBox="0 0 19.242 12.6">
  <path id="num" d="M1.71,0A.417.417,0,0,1,1.4-.126a.417.417,0,0,1-.126-.306V-12.15a.457.457,0,0,1,.117-.324A.409.409,0,0,1,1.71-12.6H3.15a.526.526,0,0,1,.522.306L8.334-4.5v-7.65a.457.457,0,0,1,.117-.324.409.409,0,0,1,.315-.126h1.548a.409.409,0,0,1,.315.126.457.457,0,0,1,.117.324V-.45a.457.457,0,0,1-.117.324A.409.409,0,0,1,10.314,0H8.874a.572.572,0,0,1-.522-.306L3.69-7.9v7.47a.433.433,0,0,1-.117.306A.409.409,0,0,1,3.258,0ZM16.092-1.89a4.441,4.441,0,0,1-3.258-1.17,4.465,4.465,0,0,1-1.188-3.33A4.383,4.383,0,0,1,12.861-9.7a4.462,4.462,0,0,1,3.231-1.17,4.45,4.45,0,0,1,3.222,1.161A4.4,4.4,0,0,1,20.52-6.39a4.465,4.465,0,0,1-1.188,3.33A4.417,4.417,0,0,1,16.092-1.89Zm0-1.8a1.716,1.716,0,0,0,1.413-.666,3.233,3.233,0,0,0,.531-2.034,3.192,3.192,0,0,0-.531-2.025,1.725,1.725,0,0,0-1.413-.657,1.744,1.744,0,0,0-1.431.657A3.192,3.192,0,0,0,14.13-6.39a3.227,3.227,0,0,0,.531,2.043A1.744,1.744,0,0,0,16.092-3.69ZM12.1,0a.439.439,0,0,1-.324-.126.417.417,0,0,1-.126-.306V-.918a.4.4,0,0,1,.135-.306A.447.447,0,0,1,12.1-1.35h7.992a.417.417,0,0,1,.306.126.417.417,0,0,1,.126.306v.486a.433.433,0,0,1-.117.306A.409.409,0,0,1,20.088,0Z" transform="translate(-1.278 12.6)" fill="#bcbcc0"/>
</svg>
