<svg xmlns="http://www.w3.org/2000/svg" width="120" height="120" viewBox="0 0 120 120">
  <g id="paint-roller_2_" data-name="paint-roller(2)" transform="translate(36 39)">
    <circle id="Ellipse_21" data-name="Ellipse 21" cx="40" cy="40" r="40" transform="translate(-16 -19)" fill="#79a7c6" opacity="0.5"/>
    <g id="Ellipse_22" data-name="Ellipse 22" transform="translate(-36 -39)" fill="none" stroke="#fff" stroke-width="18" opacity="0.1">
      <circle cx="60" cy="60" r="60" stroke="none"/>
      <circle cx="60" cy="60" r="51" fill="none"/>
    </g>
    <g id="Group_106" data-name="Group 106">
      <g id="Group_105" data-name="Group 105">
        <path id="Path_348" data-name="Path 348" d="M70.009,239.482c-.524.758-1.742,2.632-1.742,3.654a2.4,2.4,0,1,0,4.8,0c0-1.022-1.218-2.9-1.742-3.654A.83.83,0,0,0,70.009,239.482Zm.658,4.454a.8.8,0,0,1-.8-.8,5.976,5.976,0,0,1,.8-1.718,5.965,5.965,0,0,1,.8,1.718A.8.8,0,0,1,70.667,243.936Z" transform="translate(-61.867 -216.736)" fill="#262536"/>
        <path id="Path_349" data-name="Path 349" d="M227.467,230.667a.8.8,0,0,0-.8.8v14.4a1.6,1.6,0,1,1-3.2,0v-14.4a1.6,1.6,0,0,1,1.6-1.6.8.8,0,0,0,.8-.8v-6.4a.8.8,0,1,0-1.6,0v5.7a3.207,3.207,0,0,0-2.4,3.1v14.4a3.2,3.2,0,0,0,6.4,0v-14.4A.8.8,0,0,0,227.467,230.667Z" transform="translate(-201.067 -201.067)" fill="#262536"/>
        <path id="Path_350" data-name="Path 350" d="M44,0H4A4,4,0,0,0,0,4V7.2A.8.8,0,0,0,.8,8H5.6a.8.8,0,0,1,.8.8v4.8a2.4,2.4,0,1,0,4.8,0V8.8A.8.8,0,0,1,12,8h8a2.4,2.4,0,0,1,2.4,2.4,4,4,0,1,0,8,0A2.4,2.4,0,0,1,32.8,8H36a.8.8,0,0,1,.8.8,2.4,2.4,0,1,0,4.8,0,.8.8,0,0,1,.8-.8h4.8a.8.8,0,0,0,.8-.8V4A4,4,0,0,0,44,0Zm2.4,6.4h-4A2.4,2.4,0,0,0,40,8.8a.8.8,0,1,1-1.6,0A2.4,2.4,0,0,0,36,6.4H32.8a4,4,0,0,0-4,4,2.4,2.4,0,0,1-4.8,0,4,4,0,0,0-4-4H12A2.4,2.4,0,0,0,9.6,8.8v4.8a.8.8,0,1,1-1.6,0V8.8A2.4,2.4,0,0,0,5.6,6.4h-4V4A2.4,2.4,0,0,1,4,1.6H44A2.4,2.4,0,0,1,46.4,4V6.4Z" fill="#262536"/>
        <path id="Path_351" data-name="Path 351" d="M47.2,102.4a.8.8,0,0,0-.8.8V108a2.4,2.4,0,0,1-2.4,2.4H4A2.4,2.4,0,0,1,1.6,108v-4.8a.8.8,0,0,0-1.6,0V108a4,4,0,0,0,4,4H44a4,4,0,0,0,4-4v-4.8A.8.8,0,0,0,47.2,102.4Z" transform="translate(0 -92.8)" fill="#262536"/>
      </g>
    </g>
  </g>
</svg>
