<svg xmlns="http://www.w3.org/2000/svg" width="11.451" height="18" viewBox="0 0 11.451 18">
  <path id="phone" d="M18.865,16.1a.917.917,0,0,1,.075.359.883.883,0,0,1-.134.471.87.87,0,0,1-.376.334l-.756.354a4.162,4.162,0,0,1-.887.293,4.424,4.424,0,0,1-2.34-.151,5.483,5.483,0,0,1-1.363-.695,6.923,6.923,0,0,1-1.221-1.093,8.463,8.463,0,0,1-1.021-1.43q-.287-.437-.6-1-.268-.477-.613-1.144t-.7-1.48Q8.571,10.1,8.36,9.5t-.326-1.01a6.549,6.549,0,0,1-.185-.8,8.559,8.559,0,0,1-.272-1.238A8.688,8.688,0,0,1,7.49,5.224a7.155,7.155,0,0,1,.158-1.519,5.388,5.388,0,0,1,.486-1.358,4.458,4.458,0,0,1,.83-1.123,4.08,4.08,0,0,1,1.19-.806L10.9.075A.894.894,0,0,1,11.254,0a.842.842,0,0,1,.464.138A.849.849,0,0,1,12.04.52l1.435,3.26a.9.9,0,0,1,.075.354.909.909,0,0,1-.134.481.832.832,0,0,1-.378.331l-1.476.679a.988.988,0,0,0-.448.394,1.1,1.1,0,0,0-.07.99l2.423,5.532a1,1,0,0,0,.393.47,1.044,1.044,0,0,0,.546.15,1.023,1.023,0,0,0,.411-.091l1.476-.679a.886.886,0,0,1,.352-.075.844.844,0,0,1,.461.138.866.866,0,0,1,.327.38Z" transform="translate(-7.49)" fill="#604e4e"/>
</svg>
