<svg xmlns="http://www.w3.org/2000/svg" width="52" height="52.211" viewBox="0 0 52 52.211">
    <path data-name="Контур 490" d="M4.355 49.058A3.354 3.354 0 0 0 1 52.413V30.607a3.354 3.354 0 0 1 3.355-3.355H7.71v21.806z" transform="translate(-.161 -4.395)" style="fill:#bcbcc0"/>
    <path data-name="Контур 491" d="M7.71 50.349v-15.1h43.613v21.809H4.355a3.355 3.355 0 0 1 0-6.71z" transform="translate(-.161 -5.686)" style="fill:#e6e9ed"/>
    <path data-name="Контур 492" d="M38.134 37.77h11.742v5.03H38.134zm-17.613-5.033a3.348 3.348 0 0 0 3.288-2.675 8.134 8.134 0 0 1 1.359.73 8.426 8.426 0 0 1 3.045 3.623H12.83a8.4 8.4 0 0 1 4.4-4.353 3.348 3.348 0 0 0 3.291 2.675z" transform="translate(-2.069 -4.849)" style="fill:#3dc439"/>
    <path data-name="Контур 493" d="M27.452 9.639a1.69 1.69 0 0 1-1.677 1.677 10.667 10.667 0 0 1-4.764-1.124l-3.749-1.87a3.386 3.386 0 0 0-4.906 3.036v1.635h-.839a2.5 2.5 0 0 0-1.736.7A8.832 8.832 0 0 1 9 10.058a7.134 7.134 0 0 1 7.129-7.129h3.263a10.017 10.017 0 0 0 5.544-1.677l3 2.575a8.232 8.232 0 0 1 2.868 6.232 8.861 8.861 0 0 1-.78 3.632 2.5 2.5 0 0 0-1.736-.7h-.839z" transform="translate(-1.452 -.202)" style="fill:#656d78"/>
    <path data-name="Контур 494" d="M50.032 29.252h3.355v.839a4.194 4.194 0 1 1-8.387 0v-.839h5.032z" transform="translate(-7.258 -4.718)" style="fill:#bcbcc0"/>
    <path data-name="Контур 495" d="M47.161 5.311a9.223 9.223 0 0 0-4.772 16.3 4.321 4.321 0 0 1 1.644 3.33v.436h8.387v-.445a4.248 4.248 0 0 1 1.61-3.3 9.222 9.222 0 0 0-6.869-16.33z" transform="translate(-6.291 -.847)" style="fill:#ffeaa7"/>
    <path data-name="Контур 496" d="M53.57 14.747a1.64 1.64 0 0 1 .495 1.183 1.682 1.682 0 0 1-1.677 1.677h-1.9l.117-1.786a1.677 1.677 0 0 1 1.669-1.568h.109a1.64 1.64 0 0 1 1.183.495zm-6.115 1.073.117 1.786h-1.9A1.69 1.69 0 0 1 44 15.929a1.682 1.682 0 0 1 1.677-1.677h.109a1.677 1.677 0 0 1 1.669 1.568z" transform="translate(-7.097 -2.299)" style="fill:#fcd770"/>
    <path data-name="Контур 497" d="M31.491 15.948a2.517 2.517 0 0 1-1.736 4.336h-.839v-5.032h.839a2.5 2.5 0 0 1 1.736.696zm-6.836 11.717v.008a3.358 3.358 0 0 1-6.575 0v-.008a8.39 8.39 0 0 1 6.575 0z" transform="translate(-2.916 -2.46)" style="fill:#f0d0b4"/>
    <path data-name="Контур 498" d="M12.355 19.317v-6.668a3.386 3.386 0 0 1 4.906-3.036l3.749 1.87a10.667 10.667 0 0 0 4.764 1.124 1.69 1.69 0 0 0 1.677-1.677v8.387a6.708 6.708 0 0 1-6.71 6.71h-1.677a6.708 6.708 0 0 1-6.71-6.71zm0-5.032v5.032h-.839a2.516 2.516 0 0 1 0-5.032z" transform="translate(-1.451 -1.492)" style="fill:#e5ccb2"/>
    <path data-name="Контур 499" d="M52 56.446H4.194A4.2 4.2 0 0 1 0 52.252V30.446a4.2 4.2 0 0 1 4.194-4.194h4.193v6.71H52zM1.677 52.252a2.519 2.519 0 0 0 2.516 2.516h46.13V34.639H8.387v15.1H4.194a2.519 2.519 0 0 0-2.517 2.513zm2.517-24.323a2.519 2.519 0 0 0-2.516 2.516V48.9a4.171 4.171 0 0 1 2.516-.84H6.71V27.929z" transform="translate(0 -4.234)" style="fill:#262536"/>
    <path data-name="Контур 500" d="M49.934 6.128a10.061 10.061 0 1 0-13.077 15.287 3.49 3.49 0 0 1 1.337 2.68v1.279a5.032 5.032 0 1 0 10.065 0V24.09a3.4 3.4 0 0 1 1.295-2.641 10.055 10.055 0 0 0 .381-15.322zm-6.708 22.6a3.358 3.358 0 0 1-3.355-3.355h6.71a3.358 3.358 0 0 1-3.355 3.354zm-.558-12.581h1.115l-.5 7.548h-.108zm5.831 4A5.083 5.083 0 0 0 46.6 23.7h-1.639l.5-7.548h1.116a2.516 2.516 0 0 0 0-5.032h-.108a2.523 2.523 0 0 0-2.51 2.349L43.9 14.47h-1.343l-.067-1.006a2.523 2.523 0 0 0-2.51-2.348h-.108a2.516 2.516 0 1 0 0 5.032h1.116l.5 7.548h-1.641a5.19 5.19 0 0 0-1.93-3.58 8.362 8.362 0 0 1-2.976-7.825A8.449 8.449 0 0 1 42.255 5.3a9.014 9.014 0 0 1 .98-.055 8.29 8.29 0 0 1 5.578 2.135 8.377 8.377 0 0 1-.313 12.765zm-2.923-5.676.06-.894a.841.841 0 0 1 .837-.783h.108a.839.839 0 0 1 0 1.677zm-4.7 0h-1a.839.839 0 1 1 0-1.677h.108a.841.841 0 0 1 .837.783zm-29.592 14.76 1.537.672A7.528 7.528 0 0 1 16 26.388a4.165 4.165 0 0 0 7.488 0 7.537 7.537 0 0 1 3.176 3.512l1.537-.672a9.227 9.227 0 0 0-4.4-4.589 7.556 7.556 0 0 0 4.278-5.978h.048a3.34 3.34 0 0 0 2.694-5.335 9.551 9.551 0 0 0 .661-3.471 9.036 9.036 0 0 0-3.159-6.867L24.838 0l-.528.352a9.117 9.117 0 0 1-5.075 1.537h-3.267A7.977 7.977 0 0 0 8 9.857a9.562 9.562 0 0 0 .661 3.472 3.34 3.34 0 0 0 2.694 5.334h.045a7.558 7.558 0 0 0 4.278 5.977 9.229 9.229 0 0 0-4.4 4.59zm8.458-2.181a2.519 2.519 0 0 1-2.216-1.342 7.486 7.486 0 0 1 4.432 0 2.517 2.517 0 0 1-2.216 1.342zm8.387-10.065v-3.354a1.677 1.677 0 1 1 0 3.355zM9.677 15.308a1.679 1.679 0 0 1 1.677-1.677v3.355a1.679 1.679 0 0 1-1.677-1.678zm1.677-4.156v.8a3.341 3.341 0 0 0-1.313.268 7.881 7.881 0 0 1-.365-2.365 6.3 6.3 0 0 1 6.29-6.29h3.267A10.781 10.781 0 0 0 24.7 2.088l2.538 2.175a7.363 7.363 0 0 1 2.572 5.594 7.915 7.915 0 0 1-.364 2.365 3.341 3.341 0 0 0-1.313-.268V9.437a2.519 2.519 0 0 0-2.516-2.516h-.839V8.6h.839a.839.839 0 0 1 0 1.677 9.868 9.868 0 0 1-4.391-1.037L17.48 7.369a4.235 4.235 0 0 0-6.125 3.783zM18.9 23.7a5.877 5.877 0 0 1-5.871-5.871v-6.677a2.556 2.556 0 0 1 3.7-2.284l3.743 1.871a11.555 11.555 0 0 0 5.141 1.214 2.523 2.523 0 0 0 .839-.143v6.014a5.877 5.877 0 0 1-5.871 5.876z" transform="translate(-1.29)" style="fill:#262536"/>
    <path data-name="Контур 501" d="M18.194 17.768h1.677a2.516 2.516 0 0 0-5.032 0h1.677a.839.839 0 0 1 1.677 0zm5.871-.839a.84.84 0 0 1 .839.839h1.677a2.516 2.516 0 0 0-5.032 0h1.677a.84.84 0 0 1 .839-.839zm0 4.194h-1.678a1.677 1.677 0 0 1-3.355 0h-1.677a3.355 3.355 0 1 0 6.71 0zm13.419 20.129H50.9v-6.71H37.484zm1.677-5.032h10.065v3.355H39.161zm-1.677 6.71h3.355v1.677h-3.355zm5.032 0H50.9v1.677h-8.384zm-5.032 3.355H50.9v1.677H37.484zm11.742 3.355H50.9v1.677h-1.674zm-11.742 0h10.064v1.677H37.484zm-5.032-10.9h-1.678v5.032H29.1v1.677h1.677v4.194h-3.358v-8.391h-1.677v8.387H15.677v-1.677h3.355v-1.678h-3.355v-3.355H14v8.387h20.129v-1.677h-1.677z" transform="translate(-2.258 -2.46)" style="fill:#262536"/>
    <path data-name="Контур 502" d="M15.355 41.607h1.677v-1.678h3.355v4.194h-3.355V45.8h3.355v3.355h1.677v-9.226h1.677v-1.677H12v1.677h3.355z" transform="translate(-1.935 -6.17)" style="fill:#262536"/>
</svg>
