<svg xmlns="http://www.w3.org/2000/svg" width="24.998" height="14" viewBox="0 0 24.998 14">
  <path id="right-arrow_grey" data-name="right-arrow grey" d="M-767.537-1858.441a.724.724,0,0,1,0-1.03l5.009-5.009h-21.727a.755.755,0,0,1-.746-.747.754.754,0,0,1,.746-.746h21.728l-5.01-5.009a.725.725,0,0,1,0-1.031.725.725,0,0,1,1.03,0l6.167,6.167a.754.754,0,0,1,.333.565.726.726,0,0,1-.211.587l-6.289,6.253a.68.68,0,0,1-.5.213A.762.762,0,0,1-767.537-1858.441Z" transform="translate(785 1872.227)" fill="#5a5a63"/>
</svg>
