<svg xmlns="http://www.w3.org/2000/svg" width="11.536" height="14.068" viewBox="0 0 11.536 14.068">
  <path id="ruble" d="M70.418,8.77a4.385,4.385,0,0,0,0-8.77H66a.412.412,0,0,0-.412.412V6.18H63.679a.412.412,0,0,0-.412.412V8.358a.412.412,0,0,0,.412.412h1.912v.942H63.679a.412.412,0,0,0-.412.412V11.89a.412.412,0,0,0,.412.412h1.912v1.354a.412.412,0,0,0,.412.412h1.766a.412.412,0,0,0,.412-.412V12.3h2.678a.412.412,0,0,0,.412-.412V10.124a.412.412,0,0,0-.412-.412H68.181V8.77ZM68.181,2.59h2.237a1.8,1.8,0,0,1,0,3.59H68.181Z" transform="translate(-63.267)" fill="#bcbcc0"/>
</svg>
