<svg xmlns="http://www.w3.org/2000/svg" width="120" height="120" viewBox="0 0 120 120">
  <g id="safebox_1_" data-name="safebox(1)" transform="translate(35.999 36)">
    <circle id="Ellipse_21" data-name="Ellipse 21" cx="40" cy="40" r="40" transform="translate(-15.999 -16)" fill="#79a7c6" opacity="0.5"/>
    <g id="Ellipse_22" data-name="Ellipse 22" transform="translate(-35.999 -36)" fill="none" stroke="#fff" stroke-width="18" opacity="0.1">
      <circle cx="60" cy="60" r="60" stroke="none"/>
      <circle cx="60" cy="60" r="51" fill="none"/>
    </g>
    <g id="Group_108" data-name="Group 108" transform="translate(0.001 0)">
      <g id="Group_107" data-name="Group 107" transform="translate(0)">
        <path id="Path_352" data-name="Path 352" d="M13.6,46.4H4A2.4,2.4,0,0,1,1.6,44V4A2.4,2.4,0,0,1,4,1.6h9.6a.8.8,0,0,0,0-1.6H4A4,4,0,0,0,0,4V44a4,4,0,0,0,4,4h9.6a.8.8,0,0,0,0-1.6Z" transform="translate(-0.001 -0.004)" fill="#262536"/>
        <path id="Path_353" data-name="Path 353" d="M324.268,88.8a.8.8,0,0,0,.8.8h11.2a.8.8,0,0,0,.8-.8V52a.8.8,0,0,0-.8-.8h-11.2a.8.8,0,1,0,0,1.6h10.4V88h-10.4A.8.8,0,0,0,324.268,88.8Z" transform="translate(-293.868 -46.403)" fill="#262536"/>
        <path id="Path_354" data-name="Path 354" d="M333.6,394.137h5.6a.8.8,0,1,0,0-1.6h-5.6a.8.8,0,0,0,0,1.6Z" transform="translate(-301.602 -355.737)" fill="#262536"/>
        <path id="Path_355" data-name="Path 355" d="M333.6,291.737h5.6a.8.8,0,1,0,0-1.6h-5.6a.8.8,0,0,0,0,1.6Z" transform="translate(-301.602 -262.937)" fill="#262536"/>
        <path id="Path_356" data-name="Path 356" d="M333.6,360h5.6a.8.8,0,1,0,0-1.6h-5.6a.8.8,0,0,0,0,1.6Z" transform="translate(-301.602 -324.804)" fill="#262536"/>
        <path id="Path_357" data-name="Path 357" d="M333.6,325.871h5.6a.8.8,0,1,0,0-1.6h-5.6a.8.8,0,1,0,0,1.6Z" transform="translate(-301.602 -293.871)" fill="#262536"/>
        <path id="Path_358" data-name="Path 358" d="M111.735,185.6a.8.8,0,1,0,0,1.6h.033a9.3,9.3,0,0,0,.5,2.43l-.2.2A.791.791,0,0,0,113,191.1a3.776,3.776,0,0,0,1.937,1.578v.124a.8.8,0,0,0,1.6,0v-.124a3.785,3.785,0,0,0,1.949-1.6.76.76,0,0,0,.958-.114.8.8,0,0,0,0-1.132l-.23-.231a9.31,9.31,0,0,0,.491-2.4h.033a.8.8,0,0,0,0-1.6H119.7a9.282,9.282,0,0,0-.486-2.388l.225-.225a.8.8,0,0,0,0-1.132.79.79,0,0,0-.949-.122,3.788,3.788,0,0,0-1.958-1.61V180a.8.8,0,0,0-1.6,0v.124a3.791,3.791,0,0,0-1.947,1.593.791.791,0,0,0-.922.138.8.8,0,0,0,0,1.131l.2.2a9.268,9.268,0,0,0-.5,2.415h-.033Zm2.2-2.309,0-.006c.473-1.056,1.154-1.685,1.8-1.685,1.135,0,2.4,1.971,2.4,4.8s-1.265,4.8-2.4,4.8-2.4-1.971-2.4-4.8A7.724,7.724,0,0,1,113.937,183.293Z" transform="translate(-100.535 -162.402)" fill="#262536"/>
        <path id="Path_359" data-name="Path 359" d="M257.6,74.937v-40a.8.8,0,0,0-1.6,0v40a.8.8,0,0,0,1.6,0Z" transform="translate(-232.002 -30.937)" fill="#262536"/>
        <path id="Path_360" data-name="Path 360" d="M337.869,0h-12.8a.8.8,0,1,0,0,1.6h12.8a2.4,2.4,0,0,1,2.4,2.4V44a2.4,2.4,0,0,1-2.4,2.4h-12.8a.8.8,0,1,0,0,1.6h12.8a4,4,0,0,0,4-4V4A4,4,0,0,0,337.869,0Z" transform="translate(-293.869 -0.003)" fill="#262536"/>
        <path id="Path_361" data-name="Path 361" d="M154.4,242.137a.8.8,0,0,0,.8-.8v-1.6a.8.8,0,1,0-1.6,0v1.6A.8.8,0,0,0,154.4,242.137Z" transform="translate(-139.202 -216.537)" fill="#262536"/>
        <path id="Path_362" data-name="Path 362" d="M59.293,1.684l-3.2-1.6a.8.8,0,0,0-.551-.06l-19.2,4.8a.8.8,0,0,0-.606.776v4h-.8a.8.8,0,0,0-.8.8v6.4a.8.8,0,0,0,.8.8h3.2a.8.8,0,0,0,.8-.8V10.4a.8.8,0,0,0-.8-.8h-.8V6.225L55.642,1.648l2.493,1.246V45.106l-2.493,1.246L37.335,41.775V40.8a.8.8,0,1,0-1.6,0v1.6c0,.022.011.039.013.061a.725.725,0,0,0,.032.159.694.694,0,0,0,.05.138.787.787,0,0,0,.085.126.8.8,0,0,0,.1.112.744.744,0,0,0,.124.083.705.705,0,0,0,.145.07c.021.006.034.022.057.026l19.2,4.8a.8.8,0,0,0,.194.024.807.807,0,0,0,.358-.084l3.2-1.6a.8.8,0,0,0,.442-.716V2.4A.8.8,0,0,0,59.293,1.684ZM37.335,16h-1.6V11.2h1.6V16Z" transform="translate(-30.935 0)" fill="#262536"/>
        <path id="Path_363" data-name="Path 363" d="M36.536,204.8a.8.8,0,0,0-.8.8V216h-.8a.8.8,0,0,0-.8.8v6.4a.8.8,0,0,0,.8.8h3.2a.8.8,0,0,0,.8-.8v-6.4a.8.8,0,0,0-.8-.8h-.8V205.6A.8.8,0,0,0,36.536,204.8Zm.8,17.6h-1.6v-4.8h1.6v4.8Z" transform="translate(-30.936 -185.603)" fill="#262536"/>
      </g>
    </g>
  </g>
</svg>
