<svg xmlns="http://www.w3.org/2000/svg" width="48" height="48" viewBox="0 0 48 48">
    <g transform="translate(-1 -1)">
        <path data-name="Контур 503" d="M8.194 22.194v23.225H5.1a3.093 3.093 0 0 0-3.1 3.1V19.1A3.1 3.1 0 0 1 5.1 16h3.1z" transform="translate(-.226 -3.387)" style="fill:#bcbcc0"/>
        <path data-name="Контур 504" d="M32.968 50.323v-9.678a12.39 12.39 0 0 1-9.29-12A12.2 12.2 0 0 1 24.583 24H8.194v23.226H5.1a3.1 3.1 0 0 0 0 6.194h30.965a3.1 3.1 0 0 1-3.097-3.097z" transform="translate(-.226 -5.194)" style="fill:#e5ccb2"/>
        <path data-name="Контур 505" d="M48.194 50v6.194a3.1 3.1 0 1 1-6.194 0V50z" transform="translate(-9.258 -11.065)" style="fill:#e6e9ed"/>
        <path data-name="Контур 506" d="M48.194 45.5v3.484H42V45.5a12.581 12.581 0 0 0 6.194 0z" transform="translate(-9.258 -10.048)" style="fill:#bcbcc0"/>
        <path data-name="Контур 507" d="M23.742 47v6.968h-6.194A1.553 1.553 0 0 0 16 52.419V47z" transform="translate(-3.387 -10.387)" style="fill:#bcbcc0"/>
        <circle data-name="Эллипс 49" cx="1.548" cy="1.548" r="1.548" transform="translate(11.065 28.097)" style="fill:#3dc439"/>
        <circle data-name="Эллипс 50" cx="1.548" cy="1.548" r="1.548" transform="translate(11.065 42.032)" style="fill:#3dc439"/>
        <circle data-name="Эллипс 51" cx="1.548" cy="1.548" r="1.548" transform="translate(26.548 42.032)" style="fill:#3dc439"/>
        <path data-name="Контур 508" d="M53.677 10.516v4.645l-1.494.379a12.422 12.422 0 0 0-3.151-2.594v-.108a6.194 6.194 0 0 0-12.387 0v.108a12.422 12.422 0 0 0-3.151 2.594L32 15.161v-4.645l1.99-.5a9.221 9.221 0 0 1 .6-1.425l-1.057-1.776 3.283-3.283 1.773 1.053a9.22 9.22 0 0 1 1.425-.6l.5-1.99h4.645l.5 1.99a9.22 9.22 0 0 1 1.425.6l1.773-1.053 3.283 3.283-1.048 1.773a9.22 9.22 0 0 1 .6 1.425zm-2.415 9.228-2.4 2.4-1.773-1.053a9.22 9.22 0 0 1-1.425.6l-.5 1.99h-4.648l-.5-1.99a9.22 9.22 0 0 1-1.425-.6l-1.773 1.053-2.4-2.4a9.307 9.307 0 0 1 3.128-3.7 6.186 6.186 0 0 0 10.591 0 9.307 9.307 0 0 1 3.125 3.701z" transform="translate(-7 -.226)" style="fill:#3dc439"/>
        <path data-name="Контур 509" d="M45.484 38.387a12.388 12.388 0 0 1-15.484-12 12.443 12.443 0 0 1 3.043-8.137 12.39 12.39 0 1 1 12.441 20.137zm6.194-12a9.29 9.29 0 1 0-9.29 9.29 9.256 9.256 0 0 0 9.289-9.29z" transform="translate(-6.548 -2.935)" style="fill:#e6e9ed"/>
        <path data-name="Контур 510" d="m49.314 27.32 2.4-2.4a9.29 9.29 0 1 1-16.846 0l2.4 2.4 1.773-1.053a9.22 9.22 0 0 0 1.425.6l.5 1.99h4.645l.5-1.99a9.22 9.22 0 0 0 1.425-.6z" transform="translate(-7.452 -5.401)" style="fill:#69d6f4"/>
        <path data-name="Контур 511" d="M45.537 24.226h-5.849l-.552-2.169q-.376-.14-.74-.31l-1.928 1.146-2.823-2.823 1.095-1.095 1.972 1.973 1.622-.965.382.2a8.521 8.521 0 0 0 1.3.545l.409.131.465 1.822h3.441l.464-1.822.409-.131a8.488 8.488 0 0 0 1.3-.545l.382-.2 1.622.965 1.973-1.973 1.095 1.095-2.823 2.824-1.928-1.146q-.368.171-.74.31zm-12.456-8.159L31 15.537V9.688l2.169-.552c.092-.247.2-.495.31-.74l-1.146-1.927 4.136-4.136L38.4 3.479q.368-.171.74-.31L39.689 1h5.849l.552 2.169c.247.092.495.2.74.31l1.928-1.146 4.136 4.136L51.748 8.4c.114.245.218.493.31.74l2.169.553v5.849l-2.081.53-.382-1.5.914-.232v-3.447l-1.822-.464-.131-.409a8.561 8.561 0 0 0-.545-1.3l-.2-.382.965-1.622-2.431-2.436-1.622.965-.382-.2a8.521 8.521 0 0 0-1.3-.545l-.41-.128-.465-1.824h-3.442l-.464 1.822-.41.131a8.488 8.488 0 0 0-1.3.545l-.382.2-1.622-.965-2.436 2.431.965 1.622-.2.382a8.561 8.561 0 0 0-.545 1.3l-.131.409-1.823.464v3.441l.915.232z" transform="translate(-6.774)" style="fill:#262536"/>
        <path data-name="Контур 512" d="M43.968 20.935a6.924 6.924 0 0 1-5.961-3.358l1.324-.8a5.422 5.422 0 0 0 9.275 0l1.324.8a6.923 6.923 0 0 1-5.962 3.358zm6.967-6.842-1.548-.033v-.093a5.419 5.419 0 0 0-10.839 0v.1L37 14.083v-.115a6.968 6.968 0 1 1 13.935 0z" transform="translate(-8.129 -1.355)" style="fill:#262536"/>
        <path data-name="Контур 513" d="M43.065 17a10.065 10.065 0 1 0 10.064 10.065A10.076 10.076 0 0 0 43.065 17zm0 18.581a8.516 8.516 0 1 1 8.516-8.516 8.526 8.526 0 0 1-8.516 8.516z" transform="translate(-7.226 -3.613)" style="fill:#262536"/>
        <path data-name="Контур 515" d="M49 26.161a13.153 13.153 0 0 0-25.141-5.419H8.742v-6.194H4.871A3.875 3.875 0 0 0 1 18.419v29.42a3.875 3.875 0 0 0 3.871 3.871h30.968a3.875 3.875 0 0 0 3.871-3.871v-9.1A13.183 13.183 0 0 0 49 26.161zM2.548 18.419A2.325 2.325 0 0 1 4.871 16.1h2.323v27.868H4.871a3.85 3.85 0 0 0-2.323.776zm0 29.419a2.325 2.325 0 0 1 2.323-2.323h3.871V22.29H23.26a13.067 13.067 0 0 0 .6 9.29h-9.067a2.317 2.317 0 1 0-2.954 2.954v9.576a2.317 2.317 0 1 0 2.954 2.954h11.124a2.317 2.317 0 1 0 2.954-2.954v-6.8a13.082 13.082 0 0 0 3.1 1.433v9.1a3.831 3.831 0 0 0 .794 2.323H4.871a2.325 2.325 0 0 1-2.323-2.327zm26.323-1.548a.775.775 0 1 1-.774-.74.775.775 0 0 1 .774.74zm-1.548-2.18a2.32 2.32 0 0 0-1.406 1.406h-4.788v-6.968h-7.742v-4.013a2.32 2.32 0 0 0 1.406-1.406h9.9a13.249 13.249 0 0 0 2.629 3.049zm-12.53 1.406a2.32 2.32 0 0 0-1.406-1.406V40.1h6.194v5.419zm-1.406.774a.775.775 0 1 1-.774-.74.775.775 0 0 1 .774.74zm-1.548-13.935a.775.775 0 1 1 .774.774.775.775 0 0 1-.774-.774zm24 17.806a2.325 2.325 0 0 1-2.323-2.323v-5.419h4.645v5.419a2.325 2.325 0 0 1-2.322 2.323zm2.323-9.29h-4.646v-1.766a12.507 12.507 0 0 0 4.645 0zm-2.323-3.1a11.613 11.613 0 1 1 11.613-11.61 11.626 11.626 0 0 1-11.613 11.613z" transform="translate(0 -2.71)" style="fill:#262536"/>
        <path data-name="Контур 516" d="M11.194 25.194h10.838v1.548H11.194zm9.29 3.1h1.548v1.548h-1.548zm-9.29 0h7.742v1.548h-7.742z" transform="translate(-.903 -4.065)" style="fill:#262536"/>
    </g>
</svg>
