<svg xmlns="http://www.w3.org/2000/svg" width="30.194" height="36" viewBox="0 0 30.194 36">
    <path data-name="Контур 457" d="M24.225 35a1.742 1.742 0 1 1 0 3.484h-3.483a1.742 1.742 0 0 1 0-3.484z" transform="translate(-11.451 -15.258)" style="fill:#ffeaa7"/>
    <path data-name="Контур 458" d="M19 49.125a5.737 5.737 0 0 0 2.323.488h4.645v.581a1.74 1.74 0 0 1-1.742 1.742h-3.484A1.74 1.74 0 0 1 19 50.194v-1.063zm1.742-9.383h3.484A1.74 1.74 0 0 0 25.968 38v6.968h-.1a1.165 1.165 0 0 0-.825.343l-.819.819H21.9a5.781 5.781 0 0 1-2.9-.778V38a1.745 1.745 0 0 0 1.742 1.742z" transform="translate(-11.452 -16.516)" style="fill:#e6e9ed"/>
    <path data-name="Контур 459" d="m14.4 31.429.255.79a1.729 1.729 0 0 0-.482 1.2V38.7l-2.52-3.768-4.163-6.238a3.318 3.318 0 0 0 3.008.552c1.539-.325 2.636-1.283 2.5-2.166z" transform="translate(-6.625 -11.937)" style="fill:#e6e9ed"/>
    <path data-name="Контур 460" d="M12.8 26.207c.134.883-.964 1.841-2.5 2.166a3.318 3.318 0 0 1-3.008-.552l-.192-.285a1 1 0 0 1-.064-.186c-.215-.9.9-1.9 2.485-2.241 1.452-.308 2.8.046 3.182.8l.006.017z" transform="translate(-6.421 -11.064)" style="fill:#f0d0b4"/>
    <path data-name="Контур 461" d="M32.768 7.882h-5.2V2.18a6.4 6.4 0 0 1 5.2 5.7zm-7.525-5.7v5.7h-5.2a6.4 6.4 0 0 1 5.2-5.7z" transform="translate(-11.888 -1.495)" style="fill:#ff826e"/>
    <path data-name="Контур 462" d="M26.71 2.11v5.7h-2.323V2.1a6.5 6.5 0 0 1 2.323 0zm-7.525 5.7h13.331a.582.582 0 0 1 .581.581v1.157a.582.582 0 0 1-.581.581H18.581A.582.582 0 0 1 18 9.548V8.387a.582.582 0 0 1 .581-.581z" transform="translate(-11.032 -1.419)" style="fill:#fc6e51"/>
    <path data-name="Контур 463" d="M32.774 16v3.484a1.745 1.745 0 0 0-1.742-1.742h-.581V16zm-11.032 1.742A1.74 1.74 0 0 0 20 19.484V16h2.323v1.742z" transform="translate(-11.871 -7.29)" style="fill:#656d78"/>
    <path data-name="Контур 464" d="M34.188 37.467 35.065 30h3.484v8.826a3.947 3.947 0 0 1-7.479 1.765l-.65-1.3v9.29h-4.646v-2.323a1.165 1.165 0 0 0 1.161-1.158v-1.165a1.165 1.165 0 0 0-1.161-1.161V31.161l-.285-.226.285-.354a11.578 11.578 0 0 1 8.257 6.55zm-11.247-4.053a1.738 1.738 0 0 0-1.231-.514h-3.484a1.75 1.75 0 0 0-1.26.54l-.255-.79a10 10 0 0 1 4.239-2.032l.18-.041 2.323 2.9v1.161a1.738 1.738 0 0 0-.512-1.224zm-8.977 2.741 2.52 3.768V42a5.781 5.781 0 0 0 2.9.778h2.326v3.484h-2.9a5.737 5.737 0 0 1-2.323-.488A5.8 5.8 0 0 1 13 40.452a10 10 0 0 1 .964-4.297z" transform="translate(-8.936 -13.161)" style="fill:#fff"/>
    <path data-name="Контур 465" d="M32.065 46.933v2.323H28a1.74 1.74 0 0 0 1.742-1.742v-.581zm0-15.1v11.616h-.581a1.165 1.165 0 0 0-1.161-1.161h-.581v-8.129l2.038-2.549z" transform="translate(-15.226 -13.836)" style="fill:#75b1f2"/>
    <path data-name="Контур 466" d="M32.806 39.323v1.161a1.165 1.165 0 0 1-1.161 1.161h-4.064v-3.484l.819-.819a1.165 1.165 0 0 1 .824-.342h.676a1.165 1.165 0 0 1 1.161 1.161h.581a1.165 1.165 0 0 1 1.164 1.162zm11.613-18v4.065h-3.484l-.819-.819a1.165 1.165 0 0 1-.343-.825v-.679a1.17 1.17 0 0 1 1.162-1.165v-.581a1.165 1.165 0 0 1 1.165-1.158h1.161a1.165 1.165 0 0 1 1.158 1.162zM35.2 19.511a1.74 1.74 0 0 1-1.231 2.973h-.656a2.123 2.123 0 0 0 .075-.581V19h.581a1.738 1.738 0 0 1 1.231.511zm-4.134 4.715.581 1.742-.285.354-2.038 2.549L27 25.968l.581-1.742z" transform="translate(-14.806 -8.548)" style="fill:#f0d0b4"/>
    <path data-name="Контур 467" d="M24.075 21.226a2.123 2.123 0 0 1-.075-.581V16h8.129v4.645a2.123 2.123 0 0 1-.075.581 2.318 2.318 0 0 1-2.247 1.742h-3.484a2.318 2.318 0 0 1-2.248-1.742z" transform="translate(-13.548 -7.29)" style="fill:#f0d0b4"/>
    <path data-name="Контур 468" d="M22.4 22.484h-.656a1.742 1.742 0 1 1 0-3.484h.581v2.9a2.124 2.124 0 0 0 .075.584z" transform="translate(-11.871 -8.548)" style="fill:#f0d0b4"/>
    <path data-name="Контур 469" d="M34.452 12.032H33.29a1.744 1.744 0 0 0-1.742 1.742v.1a1.745 1.745 0 0 0-1.161 1.643v.68a1.734 1.734 0 0 0 .51 1.232l.622.622-.626 5.32a12.174 12.174 0 0 0-7.609-5.449l-.26-.779a2.9 2.9 0 0 0 1.89-1.626h.246a2.325 2.325 0 0 0 2.323-2.323v-2.9a1.162 1.162 0 0 0 1.161-1.161V7.968a1.162 1.162 0 0 0-1.161-1.161h-.1a6.964 6.964 0 0 0-13.733 0h-.1a1.162 1.162 0 0 0-1.161 1.161v1.161a1.162 1.162 0 0 0 1.161 1.161v2.9a2.325 2.325 0 0 0 2.323 2.323h.246a2.906 2.906 0 0 0 1.89 1.626l-.26.78a10.691 10.691 0 0 0-3.67 1.62l-1.146-3.549c0-.019 0-.038-.007-.057-.291-1.223-2.022-1.863-3.95-1.455A4.185 4.185 0 0 0 6.3 16.09a1.713 1.713 0 0 0-.258 1.331 1.592 1.592 0 0 0 .358.679l3.979 5.959a10.545 10.545 0 0 0-.892 4.234 6.39 6.39 0 0 0 3.484 5.682v.7A2.325 2.325 0 0 0 15.29 37h12.774v-7.6a4.521 4.521 0 0 0 8.129-2.732V13.774a1.744 1.744 0 0 0-1.741-1.742zm-2.9 3.484a.581.581 0 0 1 .581-.581h.581v-1.161a.581.581 0 0 1 .581-.581h1.161a.581.581 0 0 1 .581.581v3.484h-2.668l-.651-.651a.578.578 0 0 1-.17-.411zm-9.29 19.161v1.161h-1.488a2.3 2.3 0 0 0 .323-1.161zm.581-1.161h-3.488v-2.663l.651-.651a.586.586 0 0 1 .411-.17h.683a.581.581 0 0 1 .581.581v.581h1.161a.581.581 0 0 1 .581.581v1.161a.581.581 0 0 1-.584.58zm-1-16.258.348 1.045-1.672 2.09-1.675-2.093.348-1.045h2.647zm-2.99 2.911c-.026 0-.05-.008-.075-.008h-3.505a9.494 9.494 0 0 1 2.7-1.092zm-3.563 1.154h1.473a2.305 2.305 0 0 0-.312 1.161v.581h1.161v-.581a1.161 1.161 0 1 1 1.161 1.161H15.29a1.161 1.161 0 0 1 0-2.323zm-1.161 3.161a2.3 2.3 0 0 0 1.161.323h3.484a2.3 2.3 0 0 0 1.161-.323v4.463a1.725 1.725 0 0 0-.751.435l-.651.651h-2.081a5.23 5.23 0 0 1-2.323-.549zm8.129 4.837a1.732 1.732 0 0 0-1.161-.45v-6.387a2.3 2.3 0 0 0-.144-.778l1.305-1.631zm2.9-14.966v-2.323a1.161 1.161 0 0 1 0 2.323zm1.161-3.161a2.3 2.3 0 0 0-1.161-.323v-.581h1.161zM26.2 6.806h-3.942V2.427A5.755 5.755 0 0 1 26.2 6.806zM21.1 2.19v4.616h-1.165V2.19a5.855 5.855 0 0 1 1.165 0zm-2.323.237v4.379h-3.949a5.755 5.755 0 0 1 3.946-4.379zm-5.229 5.541h13.936v1.161H13.548zm2.323 2.323v.581a2.3 2.3 0 0 0-1.161.323v-.9zm-1.161 2.9a1.162 1.162 0 0 1 1.161-1.161v2.323a1.162 1.162 0 0 1-1.161-1.159zm2.323 1.161V10.29H24v4.065a1.744 1.744 0 0 1-1.742 1.745h-3.484a1.744 1.744 0 0 1-1.742-1.745zm-9.752 2.36a3.136 3.136 0 0 1 1.936-1.1 4.467 4.467 0 0 1 .924-.1 1.958 1.958 0 0 1 1.6.557l.057.177a.6.6 0 0 1-.109.4 3.136 3.136 0 0 1-1.936 1.1 2.783 2.783 0 0 1-2.44-.365l-.113-.176a.524.524 0 0 1-.026-.051.586.586 0 0 1 .107-.442zM8.848 19a5.512 5.512 0 0 0 1.144-.123 4.669 4.669 0 0 0 2.283-1.139l1.1 3.431a2.305 2.305 0 0 0-.412 1.316v3.364l-4.585-6.875c.153.016.309.026.47.026zm1.8 9.291a9.409 9.409 0 0 1 .509-3.067l1.814 2.717v.75a5.193 5.193 0 0 1-.7-.748l-.929.7a6.417 6.417 0 0 0 5.11 2.555h1.742v2.323h-2.323a5.232 5.232 0 0 1-5.226-5.231zm6.387 7.548H15.29a1.162 1.162 0 0 1-1.161-1.161v-.248a6.367 6.367 0 0 0 1.742.247h4.065a1.162 1.162 0 0 1-1.161 1.161zm14.633-5.806a3.349 3.349 0 0 1-3.011-1.861l-.589-1.179v-2.187H26.9v11.033h-3.481v-1.268a1.74 1.74 0 0 0 1.161-1.635v-1.162a1.74 1.74 0 0 0-1.161-1.635V19.153a11.011 11.011 0 0 1 7.148 6.059l.088.192-.263 2.238 1.153.135 1.1-9.358h2.387v8.246a3.371 3.371 0 0 1-3.367 3.367z" transform="translate(-6 -1)" style="fill:#262536"/>
</svg>
