<svg xmlns="http://www.w3.org/2000/svg" width="376" height="209.5" viewBox="0 0 376 209.5">
  <g id="thumbs" transform="translate(-945 -3382.5)">
    <path id="thumbs-up" d="M67.346,26.7H51.072V13.135A9.873,9.873,0,0,0,42.284,2.286a8.735,8.735,0,0,0-2.061,0H35.965a4.1,4.1,0,0,0-3.879,3.173v.325l-2.712,17.2-9.6,14.565H2.25V75.519H53.784c20.18,0,24.411-11.8,24.411-21.7V37.546A9.873,9.873,0,0,0,69.407,26.7a8.735,8.735,0,0,0-2.061,0Zm-48.822,43.4H7.675V42.971H18.524ZM72.771,53.82c0,11.093-6.023,16.274-18.986,16.274H23.949V41.073L34.8,24.99l1.979-14.565.381-2.712h3.064c3.906,0,5.425,1.519,5.425,5.425V32.124h21.7c3.906,0,5.425,1.519,5.425,5.425Z" transform="translate(942.75 3513.129)" fill="#f1e8dd"/>
    <path id="thumbs-up-2" data-name="thumbs-up" d="M67.346,26.7H51.072V13.135A9.873,9.873,0,0,0,42.284,2.286a8.735,8.735,0,0,0-2.061,0H35.965a4.1,4.1,0,0,0-3.879,3.173v.325l-2.712,17.2-9.6,14.565H2.25V75.519H53.784c20.18,0,24.411-11.8,24.411-21.7V37.546A9.873,9.873,0,0,0,69.407,26.7a8.735,8.735,0,0,0-2.061,0Zm-48.822,43.4H7.675V42.971H18.524ZM72.771,53.82c0,11.093-6.023,16.274-18.986,16.274H23.949V41.073L34.8,24.99l1.979-14.565.381-2.712h3.064c3.906,0,5.425,1.519,5.425,5.425V32.124h21.7c3.906,0,5.425,1.519,5.425,5.425Z" transform="translate(1242.75 3380.775)" fill="#f1e8dd"/>
    <path id="thumbs-up-3" data-name="thumbs-up" d="M155.273,59.752H117.017V27.872a23.208,23.208,0,0,0-20.658-25.5,20.533,20.533,0,0,0-4.846,0H81.5a9.629,9.629,0,0,0-9.119,7.458v.765L66.009,51.018,43.441,85.255H2.25v89.263H123.393c47.437,0,57.384-27.737,57.384-51.008V85.255a23.208,23.208,0,0,0-20.658-25.5,20.534,20.534,0,0,0-4.846,0ZM40.506,161.767H15V98.007h25.5Zm127.519-38.256c0,26.076-14.157,38.256-44.632,38.256H53.258V93.547l25.5-37.808L83.414,21.5l.9-6.376h7.2c9.181,0,12.752,3.571,12.752,12.752V72.509h51.008c9.181,0,12.752,3.571,12.752,12.752Z" transform="translate(994.095 3394.628)" fill="#f1e8dd"/>
    <path id="thumbs-up-4" data-name="thumbs-up" d="M43.924,17.892H33.506V9.21A6.321,6.321,0,0,0,27.88,2.264a5.592,5.592,0,0,0-1.32,0H23.834A2.622,2.622,0,0,0,21.351,4.3V4.5l-1.736,11.01-6.146,9.324H2.25v24.31H35.242c12.919,0,15.628-7.554,15.628-13.891V24.837a6.321,6.321,0,0,0-5.626-6.946,5.592,5.592,0,0,0-1.32,0ZM12.669,45.675H5.723V28.31h6.946ZM47.4,35.256c0,7.1-3.856,10.419-12.155,10.419h-19.1V27.1l6.946-10.3,1.267-9.324L24.6,5.738H26.56c2.5,0,3.473.972,3.473,3.473V21.366H43.924c2.5,0,3.473.972,3.473,3.473Z" transform="translate(1172.75 3380.275)" fill="#f1e8dd"/>
    <path id="thumbs-up-5" data-name="thumbs-up" d="M33.941,14.139H26.019v-6.6A4.807,4.807,0,0,0,21.74,2.254a4.253,4.253,0,0,0-1,0H18.664A1.994,1.994,0,0,0,16.775,3.8v.158l-1.32,8.372-4.674,7.091H2.25V37.907H27.339c9.824,0,11.884-5.744,11.884-10.564V19.421a4.807,4.807,0,0,0-4.278-5.282,4.253,4.253,0,0,0-1,0ZM10.173,35.266H4.891v-13.2h5.282Zm26.41-7.923c0,5.4-2.932,7.923-9.243,7.923H12.814V21.138l5.282-7.83.964-7.091.185-1.32h1.492c1.9,0,2.641.739,2.641,2.641v9.243H33.941c1.9,0,2.641.739,2.641,2.641Z" transform="translate(1205.75 3554.093)" fill="#f1e8dd"/>
  </g>
</svg>
