<svg xmlns="http://www.w3.org/2000/svg" width="13.188" height="18" viewBox="0 0 13.188 18">
  <path id="user-g" d="M-893.65-4506.193a9.217,9.217,0,0,1-5.976-2.2,1.758,1.758,0,0,1-.618-1.339,4.131,4.131,0,0,1,1.227-2.954,4.178,4.178,0,0,1,2.964-1.217h4.813a4.169,4.169,0,0,1,2.962,1.217,4.134,4.134,0,0,1,1.224,2.954,1.758,1.758,0,0,1-.618,1.339A9.213,9.213,0,0,1-893.65-4506.193Zm0-9.727a4.14,4.14,0,0,1-4.135-4.136,4.14,4.14,0,0,1,4.135-4.137,4.141,4.141,0,0,1,4.136,4.137A4.141,4.141,0,0,1-893.648-4515.92Z" transform="translate(900.244 4524.193)" fill="#bcbcc0"/>
</svg>
