<svg xmlns="http://www.w3.org/2000/svg" width="24" height="13.694" viewBox="0 0 24 13.694">
  <g id="vk-logo-of-social-network" transform="translate(0 -114.303)">
    <g id="Group_110" data-name="Group 110" transform="translate(0 114.303)">
      <path id="Path_373" data-name="Path 373" d="M21.28,120.028q.512-.662.812-1.062,2.162-2.874,1.874-3.674l-.075-.125a.729.729,0,0,0-.387-.206,1.976,1.976,0,0,0-.8-.031l-3.6.025a1.024,1.024,0,0,0-.25.006.693.693,0,0,0-.163.038l-.062.031-.05.038a.553.553,0,0,0-.137.131.848.848,0,0,0-.125.219,20.387,20.387,0,0,1-1.337,2.812q-.462.775-.85,1.343a6.41,6.41,0,0,1-.65.837,4.508,4.508,0,0,1-.475.431c-.142.109-.25.154-.325.138s-.146-.033-.212-.05a.825.825,0,0,1-.281-.306,1.373,1.373,0,0,1-.144-.487c-.025-.2-.04-.364-.044-.506s0-.341.006-.6.012-.433.012-.525q0-.474.019-1.031t.031-.881q.012-.324.012-.687a2.867,2.867,0,0,0-.044-.569,1.992,1.992,0,0,0-.131-.4.671.671,0,0,0-.256-.3,1.445,1.445,0,0,0-.419-.169,8.326,8.326,0,0,0-1.687-.162,8.217,8.217,0,0,0-2.987.3,1.687,1.687,0,0,0-.475.375q-.225.275-.062.3a1.533,1.533,0,0,1,1.062.537l.075.15a2.416,2.416,0,0,1,.175.575,5.83,5.83,0,0,1,.113.912,9.709,9.709,0,0,1,0,1.562q-.062.65-.119,1.012a2.027,2.027,0,0,1-.169.587,2.456,2.456,0,0,1-.15.275.22.22,0,0,1-.062.062.938.938,0,0,1-.337.062.792.792,0,0,1-.425-.175,2.955,2.955,0,0,1-.518-.481,6.394,6.394,0,0,1-.606-.856q-.337-.549-.7-1.3l-.2-.363q-.187-.349-.512-1.018t-.575-1.293a.828.828,0,0,0-.3-.4l-.062-.038a.85.85,0,0,0-.2-.106,1.347,1.347,0,0,0-.288-.081L.8,114.93a.87.87,0,0,0-.712.238l-.05.075a.4.4,0,0,0-.038.2.994.994,0,0,0,.075.337q.75,1.762,1.631,3.4t1.531,2.637q.65,1,1.325,1.887t.893,1.137q.219.25.344.375l.312.3a7.44,7.44,0,0,0,.881.719,14.827,14.827,0,0,0,1.287.824,6.976,6.976,0,0,0,1.643.662,5.662,5.662,0,0,0,1.824.206h1.437a.99.99,0,0,0,.662-.275l.05-.062a.847.847,0,0,0,.094-.231,1.278,1.278,0,0,0,.044-.343,4.111,4.111,0,0,1,.081-.968,2.559,2.559,0,0,1,.212-.65,1.6,1.6,0,0,1,.269-.369,1.075,1.075,0,0,1,.212-.181,1.012,1.012,0,0,1,.1-.044.794.794,0,0,1,.706.194,4.158,4.158,0,0,1,.762.725q.356.431.856.968a5.847,5.847,0,0,0,.875.8l.25.15a3.071,3.071,0,0,0,.65.275,1.4,1.4,0,0,0,.7.062l3.2-.05a1.447,1.447,0,0,0,.737-.156.617.617,0,0,0,.312-.343.97.97,0,0,0,.006-.425,1.551,1.551,0,0,0-.087-.331,1.7,1.7,0,0,0-.081-.156,12.447,12.447,0,0,0-2.387-2.762l-.025-.025-.012-.013-.012-.012h-.013a14.353,14.353,0,0,1-1.012-1.025.961.961,0,0,1-.175-1.012A9.33,9.33,0,0,1,21.28,120.028Z" transform="translate(0 -114.303)" fill="#79a7c6"/>
    </g>
  </g>
</svg>
