<svg xmlns="http://www.w3.org/2000/svg" width="32" height="32" viewBox="0 0 32 32">
  <g id="WhatsApp" transform="translate(-1322 -132)">
    <circle id="Ellipse_34" data-name="Ellipse 34" cx="16" cy="16" r="16" transform="translate(1322 132)" fill="#4bd647"/>
    <path id="WhatsApp-2" data-name="WhatsApp" d="M20,9.743a9.782,9.782,0,0,1-9.816,9.744,9.879,9.879,0,0,1-4.745-1.212L0,20l1.775-5.23A9.6,9.6,0,0,1,.363,9.744,9.819,9.819,0,0,1,20,9.743ZM10.184,1.552A8.234,8.234,0,0,0,1.927,9.744a8.116,8.116,0,0,0,1.572,4.8L2.47,17.583l3.173-1A8.213,8.213,0,1,0,10.184,1.552Zm4.954,10.437c-.058-.1-.218-.157-.456-.285s-1.426-.69-1.652-.768-.376-.119-.536.118-.623.779-.762.935-.287.178-.525.06a6.543,6.543,0,0,1-1.933-1.187A7.068,7.068,0,0,1,7.936,9.208c-.143-.241-.017-.369.1-.487s.242-.282.361-.42a1.458,1.458,0,0,0,.243-.394.452.452,0,0,0-.02-.424c-.059-.119-.544-1.292-.743-1.771s-.4-.4-.538-.4-.3-.02-.465-.02a.888.888,0,0,0-.643.3,2.67,2.67,0,0,0-.842,1.991,4.6,4.6,0,0,0,.985,2.47,9.832,9.832,0,0,0,4.112,3.6c2.446.957,2.446.641,2.891.6A2.451,2.451,0,0,0,15,13.123,2.025,2.025,0,0,0,15.138,11.988Z" transform="translate(1328 138)" fill="#fff"/>
  </g>
</svg>
