<svg xmlns="http://www.w3.org/2000/svg" width="352.667" height="352.667" viewBox="0 0 352.667 352.667"><defs><style>.a{fill:#4bd647;opacity:0.6;}</style></defs><path class="a" d="M352.667,171.808c0,94.824-77.484,171.822-173.086,171.822a174.208,174.208,0,0,1-83.67-21.366L0,352.667l31.3-92.222A169.353,169.353,0,0,1,6.392,171.822C6.392,76.955,83.905,0,179.581,0,275.183,0,352.667,76.955,352.667,171.808ZM179.581,27.361c-80.246,0-145.607,64.758-145.607,144.461A143.115,143.115,0,0,0,61.687,256.55l-18.133,53.5L99.5,292.376a145.153,145.153,0,0,0,80.085,23.82c80.188,0,145.534-64.788,145.534-144.49C325.115,92.135,259.768,27.361,179.581,27.361Zm87.359,184.033c-1.029-1.719-3.85-2.763-8.038-5.026-4.364-2.1-25.142-12.167-29.139-13.549-3.806-1.411-6.628-2.1-9.449,2.087-2.954,4.158-10.992,13.74-13.445,16.487-2.615,2.792-5.055,3.145-9.258,1.058-4.144-2.072-17.9-6.539-34.077-20.94-12.579-11.094-21.145-24.863-23.6-29.139-2.528-4.247-.294-6.51,1.822-8.581,1.984-1.91,4.262-4.967,6.363-7.406,2.19-2.424,2.88-4.158,4.276-6.951,1.411-2.88.69-5.3-.353-7.479-1.044-2.1-9.6-22.776-13.093-31.225-3.57-8.42-7.038-7.024-9.493-7.024-2.557,0-5.319-.353-8.2-.353a15.655,15.655,0,0,0-11.344,5.3c-3.835,4.173-14.842,14.356-14.842,35.1,0,20.69,15.194,40.792,17.369,43.554,2.116,2.792,29.315,46.61,72.5,63.48,43.129,16.869,43.129,11.3,50.975,10.595,7.656-.705,25.127-10.228,28.625-19.984C267.982,221.489,267.982,213.143,266.939,211.394Z"/></svg>